<svg width="90" height="11" viewBox="0 0 90 11" fill="none" xmlns="http://www.w3.org/2000/svg">
<path fill-rule="evenodd" clip-rule="evenodd" d="M0 5.17349V5.14602C0 2.46503 1.98104 0.244378 4.73802 0.244378C6.43749 0.244378 7.45516 0.853594 8.39181 1.74726L7.66929 2.53281C6.87976 1.77429 5.99609 1.23242 4.72444 1.23242C2.65014 1.23242 1.0978 2.93911 1.0978 5.11899V5.14602C1.0978 7.34008 2.66371 9.06006 4.72444 9.06006C6.00967 9.06006 6.85261 8.55896 7.74942 7.69232L8.44524 8.38306C7.46873 9.38483 6.39764 10.0485 4.69817 10.0485C1.99461 10.0485 0 7.89569 0 5.17349ZM21.4959 9.88612V0.406718H22.5534V9.88612H21.4959ZM25.2965 0.406629H26.287L32.1894 8.00344V0.406629H33.2202V9.88603H32.3768L26.3273 2.11288V9.88603H25.2965V0.406629ZM43.6895 0.406629H45.8978L47.8386 6.82533L49.9396 0.379159H51.7065L53.8075 6.82533L55.7487 0.406629H57.9036L54.7043 9.95382H52.9112L50.7961 3.75133L48.6815 9.95382H46.8884L43.6895 0.406629ZM59.5235 9.88612V0.406718H61.5847V9.88612H59.5235ZM66.1086 2.32949H63.2579V0.406585H71.0209V2.32949H68.1697V9.88598H66.1086V2.32949ZM18.0691 5.17349V5.14602C18.0691 2.99316 16.5163 1.23242 14.375 1.23242C12.2337 1.23242 10.7077 2.96613 10.7077 5.11899V5.14602C10.7077 7.29976 12.2604 9.06006 14.4017 9.06006C16.5435 9.06006 18.0691 7.32679 18.0691 5.17349ZM9.6103 5.17349V5.14602C9.6103 2.53281 11.5506 0.244378 14.4017 0.244378C17.2529 0.244378 19.1665 2.50579 19.1665 5.11899V5.14602C19.1665 7.76011 17.2257 10.0485 14.375 10.0485C11.5243 10.0485 9.6103 7.78669 9.6103 5.17349ZM71.7836 5.17349V5.14602C71.7836 2.45129 73.7914 0.244378 76.6688 0.244378C78.4357 0.244378 79.4928 0.839859 80.3629 1.7065L79.0514 3.23685C78.3284 2.57313 77.5927 2.16684 76.6556 2.16684C75.0766 2.16684 73.9385 3.49427 73.9385 5.11899V5.14602C73.9385 6.77118 75.0494 8.12564 76.6556 8.12564C77.7263 8.12564 78.3818 7.69232 79.1184 7.01531L80.4299 8.35603C79.4665 9.39857 78.3958 10.0485 76.5886 10.0485C73.8317 10.0485 71.7836 7.89569 71.7836 5.17349ZM82.0763 0.406629H84.1375V4.15763H87.9384V0.406629H90V9.88603H87.9384V6.08053H84.1375V9.88603H82.0763V0.406629ZM37.7181 9.15825C37.7124 9.16224 37.708 9.16711 37.7028 9.17065C37.6476 9.2123 37.5889 9.24775 37.5272 9.2792L37.5263 9.27965C37.3989 9.34433 37.2596 9.38465 37.1116 9.39927H37.1112C37.074 9.40282 37.0376 9.41035 36.9991 9.41035C36.9912 9.41035 36.9829 9.41035 36.975 9.41035C36.3208 9.39706 35.801 8.84943 35.8141 8.18749C35.8273 7.53352 36.3554 7.01292 36.9982 7.01292C37.0065 7.01292 37.0148 7.01292 37.0227 7.01292C37.6533 7.02621 38.1534 7.53574 38.1779 8.16445C38.1788 8.18882 38.1836 8.21141 38.1831 8.23578C38.1823 8.31509 38.1722 8.39219 38.156 8.46618C38.1494 8.49764 38.1372 8.52688 38.1284 8.55745C38.1157 8.59821 38.1052 8.63986 38.089 8.67841C38.0719 8.71917 38.0496 8.75683 38.0281 8.79493C38.0146 8.8193 38.0023 8.845 37.9874 8.86848C37.9576 8.91368 37.9235 8.95532 37.8884 8.99609C37.8775 9.00805 37.8683 9.02134 37.8569 9.03286C37.8144 9.07894 37.7671 9.1197 37.7181 9.15825ZM39.9649 1.63242C39.9544 1.56728 39.9478 1.50083 39.9491 1.43215C39.9504 1.35993 39.9605 1.29081 39.9741 1.22214C39.9776 1.20353 39.982 1.18492 39.9863 1.16631C40.0008 1.10827 40.0188 1.05156 40.0411 0.997502C40.0503 0.974463 40.0617 0.953195 40.0722 0.931042C40.0914 0.892052 40.1125 0.853505 40.1357 0.817174C40.1536 0.788375 40.1725 0.761348 40.1926 0.734321C40.207 0.715269 40.2228 0.697546 40.2381 0.679381C40.2863 0.622668 40.3389 0.570829 40.3971 0.524307C40.405 0.517661 40.4124 0.511015 40.4207 0.504812C40.458 0.476456 40.4961 0.449872 40.5368 0.425504C40.7128 0.321383 40.9151 0.257582 41.1332 0.257582C41.1415 0.257582 41.1494 0.257582 41.1577 0.257582C41.8119 0.270874 42.3313 0.818503 42.3181 1.48044C42.3054 2.13397 41.7778 2.65501 41.1341 2.65501C41.1258 2.65501 41.1179 2.65501 41.1096 2.65501C40.5854 2.64438 40.1527 2.28771 40.0065 1.80698C39.989 1.74983 39.9741 1.69223 39.9649 1.63242ZM39.8558 4.04137C41.7458 4.58102 42.8024 5.29347 42.7696 6.94522L42.7691 6.97225C42.745 8.19998 42.1224 9.06219 41.1323 9.50304L41.1336 9.50481C40.3756 9.93503 38.5513 9.98687 37.5998 9.98332C38.3131 9.73211 38.8368 9.05067 38.8526 8.24961C38.8535 8.2115 38.8504 8.17429 38.8491 8.13663C39.2266 8.10428 39.6137 8.04137 40.0034 7.92484V7.92351C40.4487 7.79857 40.7101 7.52387 40.718 7.13352L40.7185 7.1065C40.729 6.57836 40.4128 6.30145 38.8557 5.86325C36.9788 5.33733 35.7716 4.78439 35.8088 2.90269L35.8092 2.87566C35.8316 1.7742 36.41 0.925282 37.3248 0.466266L37.3235 0.463607C38.0162 0.0413654 39.2388 -0.0104733 39.9688 0.00148947C39.5589 0.339106 39.2914 0.848632 39.28 1.41841C39.2774 1.55887 39.2909 1.69533 39.3176 1.82736C39.0129 1.85572 38.7169 1.91819 38.3569 2.052C38.0377 2.19289 37.866 2.4388 37.8603 2.72767L37.8599 2.7547C37.8476 3.37721 38.2448 3.58855 39.8558 4.04137Z" fill="#4C4AA1"/>
</svg>
