<svg width="32" height="32" viewBox="0 0 32 32" fill="none" xmlns="http://www.w3.org/2000/svg">
<g clip-path="url(#clip0_214_779)">
<path d="M16 32C7.163 32 0 24.837 0 16C0 7.163 7.163 0 16 0C24.837 0 32 7.163 32 16C32 24.837 24.837 32 16 32Z" fill="white"/>
<path d="M10.2009 18.6167L11.7533 17.077L9.8233 14.5804L7.36592 11.2473C6.49776 12.6675 6 14.3208 6 16.0857C6 19.0096 7.36592 21.6274 9.52018 23.3855L12.6394 21.2724C11.5785 20.6387 10.7238 19.7163 10.2009 18.6167Z" fill="#171717"/>
<path d="M13.3597 10.5269L14.966 12.015L17.5705 10.1649L21.0476 7.80934C19.566 6.97714 17.8413 6.5 16.0001 6.5C12.9498 6.5 10.2189 7.80934 8.38483 9.87437L10.5893 12.8644C11.2503 11.8474 12.2126 11.0281 13.3597 10.5269Z" fill="#171717"/>
<path d="M20.2466 15.0945L22.1767 17.5911L24.6341 20.9242C25.5022 19.504 26 17.8508 26 16.0858C26 13.1619 24.6341 10.5441 22.4798 8.78598L19.3605 10.8991C20.4215 11.5328 21.2762 12.4552 21.7991 13.5548L20.2466 15.0945Z" fill="#171717"/>
<path d="M23.6152 22.2972L21.4108 19.3072C20.7497 20.3242 19.7874 21.1435 18.6403 21.6447L17.0341 20.1566L14.4296 22.0067L10.9525 24.3622C12.4341 25.1945 14.1587 25.6716 16 25.6716C19.0502 25.6716 21.7811 24.3622 23.6152 22.2972Z" fill="#171717"/>
</g>
<defs>
<clipPath id="clip0_214_779">
<rect width="32" height="32" fill="white"/>
</clipPath>
</defs>
</svg>
