<svg width="32" height="32" viewBox="0 0 32 32" fill="none" xmlns="http://www.w3.org/2000/svg">
<path d="M14.5977 24.998L6.04387 7.60592C5.90487 7.32842 6.11387 7 6.42187 7H9.38581C9.54481 7 9.69381 7.08984 9.76381 7.22859L16.0107 19.8462C16.5677 20.9782 18.1787 20.9782 18.7356 19.8462L24.9625 7.23858C25.0325 7.09982 25.1815 7.00998 25.3405 7.00998H25.7085C25.9275 7.00998 26.0665 7.23858 25.9675 7.42724L17.3237 24.998C16.7667 26.129 15.1547 26.129 14.5977 24.998Z" fill="url(#paint0_linear_214_570)"/>
<path opacity="0.1" d="M14.5974 24.9978L9.76351 7.23836C9.69351 7.08962 9.53451 7.00977 9.40551 7.00977H6.43156C6.10357 7.00977 5.91457 7.33718 6.04357 7.61569L14.5974 24.9978Z" fill="white"/>
<path opacity="0.1" d="M16.0098 19.8552L6.04302 7.60592C5.92402 7.31843 6.10302 7.02995 6.38102 7H9.39496C9.56396 7.00998 9.69296 7.11879 9.75296 7.22859L16.0098 19.8552Z" fill="white"/>
<defs>
<linearGradient id="paint0_linear_214_570" x1="5.99997" y1="16.4232" x2="26" y2="16.4232" gradientUnits="userSpaceOnUse">
<stop stop-color="#9D4ABE"/>
<stop offset="0.03" stop-color="#9055C4"/>
<stop offset="0.15" stop-color="#6B74D6"/>
<stop offset="0.26" stop-color="#4C8FE5"/>
<stop offset="0.39" stop-color="#34A3F0"/>
<stop offset="0.52" stop-color="#22B2F9"/>
<stop offset="0.66" stop-color="#18BAFD"/>
<stop offset="0.83" stop-color="#15BDFF"/>
<stop offset="1" stop-color="#28BAD5"/>
</linearGradient>
</defs>
</svg>
