<svg width="35" height="35" viewBox="0 0 35 35" fill="none" xmlns="http://www.w3.org/2000/svg">
<circle cx="17.5" cy="17.5" r="17.5" fill="#28DBE7"/>
<path d="M15.8916 12.2794C15.0128 12.3741 14.1611 12.5836 13.3363 12.8946C12.2006 13.3205 11.1866 13.9356 10.3078 14.7739C10.2132 14.8618 10.1997 14.9361 10.274 15.0443C10.4025 15.2336 10.5444 15.4161 10.6864 15.5851C10.7608 15.673 10.8148 15.673 10.896 15.5986C11.2813 15.2336 11.6936 14.9226 12.1398 14.6387C12.5792 14.3615 13.0389 14.1182 13.5256 13.9289C13.7149 13.8545 13.9042 13.8342 14.1002 13.9018C14.276 13.9694 14.3165 14.1046 14.1949 14.2398C14.0799 14.3953 13.9312 14.4967 13.7622 14.5711C13.4715 14.6928 13.1876 14.828 12.9104 14.9767C12.3629 15.2674 11.8559 15.6121 11.3962 16.0245C11.3083 16.1056 11.288 16.1529 11.3962 16.2273C11.6193 16.3828 11.8491 16.518 12.0857 16.6464C12.1804 16.6937 12.2412 16.6802 12.3156 16.6126C12.4981 16.4368 12.7009 16.2814 12.9172 16.1394C14.2692 15.2336 15.7699 14.9226 17.3653 15.0172C18.2644 15.0713 19.1094 15.3417 19.9206 15.7338C20.0017 15.7744 20.0626 15.8217 20.0964 15.9096C20.2383 16.2543 20.5763 16.4504 20.9549 16.4098C21.0293 16.403 21.0833 16.4166 21.1442 16.4571C21.5701 16.7613 21.9757 17.0993 22.3204 17.4982C22.5773 17.8024 22.8274 18.1066 22.9356 18.5054C22.9897 18.7082 22.9559 18.8637 22.841 18.9245C22.726 18.9854 22.5705 18.9245 22.4421 18.7623C22.2663 18.5325 22.0906 18.3026 21.9283 18.0728C21.5768 17.5793 21.178 17.1264 20.6575 16.8019C18.8931 15.6797 17.007 15.3552 14.979 15.9096C14.7424 15.9772 14.5126 16.0583 14.2895 16.1867C14.3165 16.1935 14.3436 16.2002 14.3639 16.2002C14.9655 16.2611 15.5401 16.4098 16.0742 16.6937C16.135 16.7275 16.1958 16.7208 16.2634 16.7073C16.7704 16.6329 17.2707 16.6532 17.7777 16.7343C18.9674 16.9303 19.9679 17.4847 20.7859 18.3635C21.712 19.3504 22.2055 20.5199 22.2393 21.8787C22.2461 22.068 22.2393 22.2505 22.2325 22.4398C22.2325 22.4736 22.219 22.5074 22.2528 22.5276C22.2866 22.5479 22.3137 22.5141 22.3339 22.4938C22.5029 22.3722 22.672 22.2437 22.8477 22.1288C23.1992 21.9057 23.3344 21.588 23.2736 21.1824C23.2668 21.1283 23.2601 21.0742 23.2533 21.0202C23.2195 20.7836 23.2195 20.5267 23.1384 20.3104C23.0235 20.0197 22.9897 19.7222 22.9356 19.4248C22.9288 19.3775 22.9288 19.3234 22.9559 19.2828C23.1722 18.9381 23.3547 18.573 23.6522 18.2891C23.9361 18.0187 23.9293 18.0119 23.7198 17.6807C23.1992 16.856 22.5503 16.1394 21.7729 15.5513C21.7188 15.5107 21.6715 15.4702 21.6579 15.3958C21.543 14.9429 21.1374 14.686 20.6845 14.7739C20.5966 14.7874 20.529 14.7806 20.4479 14.7401C19.1229 14.0911 17.7168 13.8478 16.2499 13.9694C16.0471 13.983 15.8375 13.9559 15.6347 13.9154C15.5131 13.8951 15.4522 13.8207 15.4387 13.7058C15.4252 13.5841 15.4657 13.4895 15.5739 13.4354C15.6483 13.3948 15.7361 13.3678 15.8173 13.3543C15.9795 13.3137 16.135 13.3205 16.2972 13.3205C16.3581 13.3205 16.4122 13.3205 16.473 13.3205C17.0544 13.3137 17.629 13.2934 18.2036 13.3881C19.2649 13.5638 20.2586 13.9154 21.1915 14.4494C22.1311 14.9902 22.9559 15.6662 23.6589 16.4909C23.9158 16.7884 24.1456 17.0993 24.362 17.4306C24.389 17.4779 24.4228 17.559 24.4904 17.4847C24.6932 17.2886 24.9028 17.1061 25.0515 16.8695C25.092 16.8087 25.0785 16.7613 25.0447 16.7073C24.5783 15.9974 24.0442 15.3417 23.4088 14.7671C23.348 14.713 23.2939 14.6928 23.2128 14.7063C22.9559 14.7401 22.7058 14.7468 22.4489 14.6928C21.4822 14.5035 20.8265 13.9424 20.4885 13.0163C20.4547 12.9284 20.4073 12.8743 20.3127 12.8405C20.0964 12.7729 19.8868 12.6985 19.6705 12.6377C18.7444 12.3673 17.8047 12.2253 16.8516 12.2253C16.5406 12.2253 16.2161 12.2456 15.8916 12.2794Z" fill="#0D4682"/>
<path d="M16.3986 8.83871C16.3445 8.88604 16.2904 8.90632 16.2228 8.91308C15.9389 8.9266 15.655 8.94012 15.3778 8.96716C14.188 9.06856 13.0456 9.38628 11.9234 9.7716C11.4097 9.9406 10.9229 10.1907 10.4497 10.4611C10.3754 10.5084 10.3213 10.5558 10.274 10.6301C10.0374 10.9952 9.86836 11.394 9.7602 11.8131C9.7264 11.9483 9.68584 12.0835 9.68584 12.2525C9.83456 12.1376 9.95624 12.043 10.0847 11.9551C10.8553 11.394 11.653 10.8938 12.5724 10.6098C12.9307 10.5017 13.2889 10.38 13.6675 10.4408C13.7757 10.4679 13.8838 10.5017 13.9041 10.6166C13.9311 10.7383 13.8162 10.7721 13.7351 10.8194C13.7283 10.8262 13.7216 10.8262 13.7148 10.8329C13.0726 11.1439 12.4304 11.4616 11.7882 11.7793C11.1122 12.1106 10.4362 12.4351 9.75344 12.7595C9.6926 12.7933 9.625 12.8136 9.625 12.9015C9.63176 13.1989 9.6588 13.4896 9.73992 13.7803C9.7602 13.8547 9.80076 13.9087 9.90216 13.8547C10.4632 13.5775 11.0378 13.3206 11.5922 13.0299C12.3831 12.6176 13.1875 12.2458 14.0393 11.9889C15.3372 11.6036 16.6622 11.5022 18.0007 11.6577C18.7511 11.7455 19.4947 11.8943 20.2112 12.1376C20.2991 12.1647 20.3464 12.1579 20.3532 12.0497C20.3802 11.8064 20.414 11.563 20.5087 11.3264C20.5695 11.1709 20.5627 11.1709 20.4073 11.1236C19.7786 10.9343 19.1431 10.8059 18.4942 10.7248C17.6965 10.6234 16.8853 10.6031 16.0741 10.6504C15.8375 10.6639 15.5941 10.6842 15.3575 10.6031C15.1615 10.5355 15.0939 10.4476 15.1006 10.2651C15.1142 10.1096 15.1953 10.0352 15.3981 10.0082C15.6617 9.96764 15.9321 9.95412 16.2025 9.9406C16.3039 9.93384 16.3783 9.95412 16.4594 10.0217C16.7163 10.2516 17.0813 10.2921 17.3788 10.1366C17.6627 9.98792 17.8587 9.66344 17.8317 9.366C17.7979 9.02124 17.6356 8.75759 17.3044 8.62915C17.1962 8.59535 17.0881 8.57507 16.9867 8.57507C16.7704 8.57507 16.5743 8.66295 16.3986 8.83871Z" fill="#0D4682"/>
<path d="M16.6283 17.0115C16.6621 17.0521 16.6689 17.0656 16.6824 17.0791C17.1894 17.4847 17.6017 17.9714 17.8924 18.5596C17.9127 18.6069 17.9465 18.6272 18.0006 18.6272C18.1561 18.6272 18.2777 18.7083 18.3927 18.7962C18.6833 19.026 18.947 19.2897 19.1498 19.6006C19.7041 20.4591 19.819 21.3988 19.6568 22.3858C19.5216 23.1902 19.2174 23.9473 18.8726 24.6842C18.636 25.1912 18.3791 25.6779 18.1155 26.1714C18.0614 26.2728 18.0817 26.3269 18.1831 26.3742C18.3251 26.4485 18.467 26.4283 18.609 26.3945C18.7307 26.3607 18.8591 26.3201 18.9876 26.3269C19.116 26.3336 19.1836 26.2795 19.2377 26.1646C19.5689 25.4683 19.9069 24.7788 20.2246 24.0758C20.6573 23.1023 20.8668 22.0951 20.7316 21.027C20.495 19.0869 19.0078 17.4644 17.0947 17.0791C16.9663 17.0521 16.8379 17.0183 16.6824 17.0183C16.6553 17.0048 16.6418 17.0048 16.6283 17.0115Z" fill="#0D4682"/>
<path d="M18.2578 19.6211C18.3389 20.047 18.3524 20.4796 18.3051 20.9123C18.2645 21.2706 18.1428 21.6018 18.0685 21.9466C17.9603 22.4671 17.744 22.9335 17.5277 23.4C17.4871 23.4946 17.4263 23.5487 17.3249 23.5825C16.9328 23.7109 16.7097 24.0422 16.7097 24.4546C16.7097 24.8399 16.899 25.117 17.2438 25.2725C17.5885 25.428 17.9198 25.3807 18.2037 25.1373C18.4944 24.894 18.5958 24.5695 18.4944 24.1977C18.4673 24.103 18.4741 24.0287 18.5146 23.9408C18.9135 23.1025 19.1569 22.2305 19.0757 21.2841C19.0217 20.6824 18.8459 20.1349 18.4741 19.6549C18.4065 19.567 18.3456 19.4724 18.224 19.3845C18.2375 19.4859 18.2442 19.5535 18.2578 19.6211Z" fill="#0D4682"/>
</svg>
