<svg width="140" height="140" viewBox="0 0 140 140" fill="none" xmlns="http://www.w3.org/2000/svg">
<circle cx="69.9766" cy="69.9766" r="69.9766" fill="#4C4AA1"/>
<path d="M63.545 49.1017C60.031 49.4802 56.6251 50.3181 53.3273 51.5616C48.786 53.2645 44.7314 55.7244 41.2173 59.0762C40.8389 59.4276 40.7848 59.725 41.0822 60.1575C41.5957 60.9144 42.1634 61.6442 42.7311 62.32C43.0284 62.6714 43.2446 62.6714 43.569 62.374C45.1098 60.9144 46.7587 59.6709 48.5427 58.5356C50.2998 57.4273 52.1379 56.4542 54.0841 55.6973C54.841 55.4 55.5979 55.3189 56.3818 55.5892C57.0846 55.8595 57.2468 56.4002 56.7602 56.9408C56.3007 57.5625 55.706 57.968 55.0302 58.2653C53.8679 58.7519 52.7326 59.2925 51.6243 59.8872C49.4348 61.0495 47.4074 62.4281 45.5693 64.077C45.2179 64.4014 45.1368 64.5906 45.5693 64.8879C46.4614 65.5097 47.3804 66.0503 48.3265 66.5639C48.7049 66.7531 48.9482 66.699 49.2456 66.4287C49.9754 65.7259 50.7863 65.1042 51.6513 64.5365C57.0576 60.9144 63.0585 59.6709 69.4378 60.0494C73.033 60.2656 76.4119 61.3469 79.6556 62.9147C79.98 63.0768 80.2232 63.2661 80.3584 63.6175C80.9261 64.9961 82.2776 65.78 83.7914 65.6178C84.0887 65.5907 84.305 65.6448 84.5482 65.807C86.2512 67.0234 87.8731 68.375 89.2517 69.9698C90.2788 71.1862 91.279 72.4026 91.7115 73.9974C91.9277 74.8084 91.7926 75.4301 91.333 75.6734C90.8735 75.9166 90.2518 75.6734 89.7382 75.0246C89.0354 74.1056 88.3326 73.1865 87.6838 72.2674C86.2782 70.2942 84.6834 68.4831 82.602 67.1856C75.5469 62.6984 68.0052 61.4009 59.8958 63.6175C58.9497 63.8878 58.0307 64.2122 57.1387 64.7257C57.2468 64.7528 57.3549 64.7798 57.436 64.7798C59.8418 65.0231 62.1394 65.6178 64.2749 66.7531C64.5182 66.8882 64.7614 66.8612 65.0317 66.8071C67.0591 66.5098 69.0594 66.5909 71.0867 66.9153C75.8442 67.6992 79.8448 69.9157 83.1156 73.4298C86.8188 77.3763 88.7921 82.0527 88.9273 87.486C88.9543 88.2428 88.9273 88.9727 88.9002 89.7296C88.9002 89.8647 88.8462 89.9999 88.9813 90.081C89.1165 90.1621 89.2246 90.0269 89.3057 89.9458C89.9815 89.4592 90.6573 88.9457 91.3601 88.4861C92.7657 87.5941 93.3063 86.3236 93.063 84.7018C93.036 84.4855 93.009 84.2693 92.9819 84.053C92.8468 83.1069 92.8468 82.0797 92.5224 81.2147C92.0629 80.0524 91.9277 78.863 91.7115 77.6737C91.6845 77.4844 91.6845 77.2682 91.7926 77.106C92.6576 75.7274 93.3874 74.2677 94.5768 73.1324C95.7121 72.0512 95.6851 72.0242 94.8471 70.6996C92.7657 67.4018 90.1707 64.5365 87.0621 62.1848C86.8459 62.0226 86.6567 61.8604 86.6026 61.5631C86.1431 59.752 84.5212 58.7248 82.7101 59.0762C82.3587 59.1303 82.0884 59.1033 81.764 58.9411C76.4659 56.3461 70.8434 55.373 64.9777 55.8595C64.1668 55.9136 63.3288 55.8055 62.5179 55.6433C62.0313 55.5622 61.788 55.2648 61.7339 54.8053C61.6799 54.3188 61.8421 53.9403 62.2746 53.7241C62.5719 53.5619 62.9233 53.4538 63.2477 53.3997C63.8964 53.2375 64.5182 53.2645 65.1669 53.2645C65.4102 53.2645 65.6264 53.2645 65.8697 53.2645C68.1944 53.2375 70.492 53.1564 72.7897 53.5349C77.0336 54.2377 81.0072 55.6433 84.7375 57.7787C88.4948 59.9412 91.7926 62.6444 94.6038 65.9422C95.631 67.1315 96.5501 68.375 97.4151 69.6995C97.5232 69.8887 97.6583 70.2131 97.9286 69.9157C98.7396 69.1318 99.5775 68.402 100.172 67.4559C100.334 67.2126 100.28 67.0234 100.145 66.8071C98.2801 63.9689 96.1446 61.3469 93.6037 59.0492C93.3604 58.833 93.1441 58.7519 92.8198 58.8059C91.7926 58.9411 90.7924 58.9681 89.7652 58.7519C85.8998 57.995 83.2778 55.7514 81.9262 52.0481C81.7911 51.6967 81.6018 51.4805 81.2234 51.3453C80.3584 51.075 79.5204 50.7777 78.6554 50.5344C74.9522 49.4532 71.1948 48.8855 67.3835 48.8855C66.14 48.8855 64.8425 48.9666 63.545 49.1017Z" fill="#00F0FF"/>
<path d="M65.5725 35.3434C65.3563 35.5326 65.14 35.6137 64.8697 35.6407C63.7344 35.6948 62.5991 35.7489 61.4908 35.857C56.7333 36.2625 52.1651 37.5329 47.6779 39.0737C45.6235 39.7495 43.6773 40.7496 41.7851 41.8309C41.4878 42.0201 41.2715 42.2093 41.0823 42.5067C40.1362 43.9663 39.4604 45.5612 39.0279 47.2371C38.8928 47.7777 38.7306 48.3183 38.7306 48.9941C39.3253 48.5346 39.8118 48.1562 40.3254 47.8048C43.407 45.5612 46.5966 43.5609 50.2729 42.4256C51.7055 41.9931 53.1382 41.5065 54.6519 41.7498C55.0844 41.8579 55.5169 41.9931 55.598 42.4526C55.7061 42.9391 55.2466 43.0743 54.9222 43.2635C54.8952 43.2906 54.8682 43.2906 54.8411 43.3176C52.2732 44.561 49.7052 45.8315 47.1373 47.1019C44.4342 48.4265 41.731 49.724 39.0009 51.0215C38.7576 51.1566 38.4873 51.2377 38.4873 51.5891C38.5143 52.7785 38.6225 53.9408 38.9468 55.1032C39.0279 55.4005 39.1901 55.6168 39.5956 55.4005C41.8392 54.2922 44.1368 53.265 46.3534 52.1027C49.516 50.4538 52.7327 48.9671 56.1386 47.9399C61.3286 46.3991 66.6267 45.9937 71.9789 46.6154C74.9793 46.9668 77.9528 47.5615 80.8181 48.5346C81.1695 48.6427 81.3587 48.6157 81.3857 48.1832C81.4939 47.2101 81.629 46.2369 82.0074 45.2909C82.2507 44.6691 82.2237 44.6691 81.602 44.4799C79.0881 43.7231 76.5472 43.2095 73.9522 42.8851C70.7625 42.4796 67.5188 42.3985 64.275 42.5877C63.3289 42.6418 62.3558 42.7229 61.4097 42.3985C60.6258 42.1282 60.3555 41.7768 60.3825 41.047C60.4366 40.4253 60.761 40.1279 61.5719 40.0198C62.6261 39.8576 63.7074 39.8035 64.7886 39.7495C65.1941 39.7224 65.4914 39.8035 65.8158 40.0738C66.843 40.9929 68.3027 41.1551 69.492 40.5334C70.6273 39.9387 71.4112 38.6412 71.3031 37.4518C71.168 36.0732 70.5192 35.019 69.1947 34.5054C68.7622 34.3703 68.3297 34.2892 67.9242 34.2892C67.0592 34.2892 66.2753 34.6406 65.5725 35.3434Z" fill="#00F0FF"/>
<path d="M66.4915 68.0237C66.6266 68.1859 66.6536 68.24 66.7077 68.294C68.735 69.9159 70.3839 71.8622 71.5463 74.2139C71.6274 74.4031 71.7625 74.4842 71.9788 74.4842C72.6005 74.4842 73.0871 74.8086 73.5466 75.16C74.7089 76.079 75.7631 77.1332 76.5741 78.3767C78.7906 81.8096 79.2502 85.5669 78.6014 89.5135C78.0608 92.7302 76.8444 95.7577 75.4658 98.7041C74.5197 100.731 73.4925 102.678 72.4383 104.651C72.2221 105.056 72.3032 105.273 72.7086 105.462C73.2763 105.759 73.8439 105.678 74.4116 105.543C74.8981 105.408 75.4117 105.246 75.9253 105.273C76.4389 105.3 76.7092 105.083 76.9255 104.624C78.25 101.84 79.6016 99.0825 80.872 96.2713C82.602 92.3788 83.44 88.3512 82.8994 84.0802C81.9533 76.3223 76.0064 69.8348 68.3566 68.294C67.843 68.1859 67.3294 68.0508 66.7077 68.0508C66.5996 67.9967 66.5455 67.9967 66.4915 68.0237Z" fill="#00F0FF"/>
<path d="M73.0063 78.4589C73.3307 80.1619 73.3847 81.8919 73.1955 83.6219C73.0333 85.0545 72.5468 86.379 72.2494 87.7576C71.8169 89.839 70.9519 91.7042 70.0869 93.5693C69.9247 93.9478 69.6815 94.164 69.276 94.2992C67.7082 94.8128 66.8162 96.1373 66.8162 97.7862C66.8162 99.327 67.573 100.435 68.9516 101.057C70.3302 101.679 71.6547 101.489 72.79 100.516C73.9524 99.5432 74.3579 98.2457 73.9524 96.759C73.8443 96.3806 73.8713 96.0832 74.0335 95.7318C75.6283 92.3799 76.6014 88.8929 76.2771 85.1086C76.0608 82.7028 75.358 80.5133 73.8713 78.5941C73.601 78.2427 73.3577 77.8642 72.8711 77.5128C72.9252 77.9183 72.9522 78.1886 73.0063 78.4589Z" fill="#00F0FF"/>
</svg>
