<svg width="140" height="140" viewBox="0 0 140 140" fill="none" xmlns="http://www.w3.org/2000/svg">
<circle cx="69.9766" cy="69.9766" r="69.9766" fill="#4C4AA1"/>
<path d="M63.545 49.1017C60.031 49.4802 56.6251 50.3181 53.3273 51.5616C48.786 53.2645 44.7314 55.7244 41.2173 59.0762C40.8389 59.4276 40.7848 59.725 41.0822 60.1575C41.5957 60.9144 42.1634 61.6442 42.7311 62.32C43.0284 62.6714 43.2446 62.6714 43.569 62.374C45.1098 60.9144 46.7587 59.6709 48.5427 58.5356C50.2998 57.4273 52.1379 56.4542 54.0841 55.6973C54.841 55.4 55.5979 55.3189 56.3818 55.5892C57.0846 55.8595 57.2468 56.4002 56.7602 56.9408C56.3007 57.5625 55.706 57.968 55.0302 58.2653C53.8679 58.7519 52.7326 59.2925 51.6243 59.8872C49.4348 61.0495 47.4074 62.4281 45.5693 64.077C45.2179 64.4014 45.1368 64.5906 45.5693 64.8879C46.4614 65.5097 47.3804 66.0503 48.3265 66.5639C48.7049 66.7531 48.9482 66.699 49.2456 66.4287C49.9754 65.7259 50.7863 65.1042 51.6513 64.5365C57.0576 60.9144 63.0585 59.6709 69.4378 60.0494C73.033 60.2656 76.4119 61.3469 79.6556 62.9147C79.98 63.0768 80.2232 63.2661 80.3584 63.6175C80.9261 64.9961 82.2776 65.78 83.7914 65.6178C84.0887 65.5907 84.305 65.6448 84.5482 65.807C86.2512 67.0234 87.8731 68.375 89.2517 69.9698C90.2788 71.1862 91.279 72.4026 91.7115 73.9974C91.9277 74.8084 91.7926 75.4301 91.333 75.6734C90.8735 75.9166 90.2518 75.6734 89.7382 75.0246C89.0354 74.1056 88.3326 73.1865 87.6838 72.2674C86.2782 70.2942 84.6834 68.4831 82.602 67.1856C75.5469 62.6984 68.0052 61.4009 59.8958 63.6175C58.9497 63.8878 58.0307 64.2122 57.1387 64.7257C57.2468 64.7528 57.3549 64.7798 57.436 64.7798C59.8418 65.0231 62.1394 65.6178 64.2749 66.7531C64.5182 66.8882 64.7614 66.8612 65.0317 66.8071C67.0591 66.5098 69.0594 66.5909 71.0867 66.9153C75.8442 67.6992 79.8448 69.9157 83.1156 73.4298C86.8188 77.3763 88.7921 82.0527 88.9273 87.486C88.9543 88.2428 88.9273 88.9727 88.9002 89.7296C88.9002 89.8647 88.8462 89.9999 88.9813 90.081C89.1165 90.1621 89.2246 90.0269 89.3057 89.9458C89.9815 89.4592 90.6573 88.9457 91.3601 88.4861C92.7657 87.5941 93.3063 86.3236 93.063 84.7018C93.036 84.4855 93.009 84.2693 92.9819 84.053C92.8468 83.1069 92.8468 82.0797 92.5224 81.2147C92.0629 80.0524 91.9277 78.863 91.7115 77.6737C91.6845 77.4844 91.6845 77.2682 91.7926 77.106C92.6576 75.7274 93.3874 74.2677 94.5768 73.1324C95.7121 72.0512 95.6851 72.0242 94.8471 70.6996C92.7657 67.4018 90.1707 64.5365 87.0621 62.1848C86.8459 62.0226 86.6567 61.8604 86.6026 61.5631C86.1431 59.752 84.5212 58.7248 82.7101 59.0762C82.3587 59.1303 82.0884 59.1033 81.764 58.9411C76.4659 56.3461 70.8434 55.373 64.9777 55.8595C64.1668 55.9136 63.3288 55.8055 62.5179 55.6433C62.0313 55.5622 61.788 55.2648 61.7339 54.8053C61.6799 54.3188 61.8421 53.9403 62.2746 53.7241C62.5719 53.5619 62.9233 53.4538 63.2477 53.3997C63.8964 53.2375 64.5182 53.2645 65.1669 53.2645C65.4102 53.2645 65.6264 53.2645 65.8697 53.2645C68.1944 53.2375 70.492 53.1564 72.7897 53.5349C77.0336 54.2377 81.0072 55.6433 84.7375 57.7787C88.4948 59.9412 91.7926 62.6444 94.6038 65.9422C95.631 67.1315 96.5501 68.375 97.4151 69.6995C97.5232 69.8887 97.6583 70.2131 97.9286 69.9157C98.7396 69.1318 99.5775 68.402 100.172 67.4559C100.334 67.2126 100.28 67.0234 100.145 66.8071C98.2801 63.9689 96.1446 61.3469 93.6037 59.0492C93.3604 58.833 93.1441 58.7519 92.8198 58.8059C91.7926 58.9411 90.7924 58.9681 89.7652 58.7519C85.8998 57.995 83.2778 55.7514 81.9262 52.0481C81.7911 51.6967 81.6018 51.4805 81.2234 51.3453C80.3584 51.075 79.5204 50.7777 78.6554 50.5344C74.9522 49.4532 71.1948 48.8855 67.3835 48.8855C66.14 48.8855 64.8425 48.9666 63.545 49.1017Z" fill="#00F0FF"/>
<path d="M65.5725 35.3433C65.3563 35.5325 65.14 35.6136 64.8697 35.6406C63.7344 35.6947 62.5991 35.7487 61.4908 35.8569C56.7333 36.2623 52.1651 37.5328 47.6779 39.0736C45.6235 39.7494 43.6773 40.7495 41.7851 41.8308C41.4878 42.02 41.2715 42.2092 41.0823 42.5065C40.1362 43.9662 39.4604 45.561 39.0279 47.237C38.8928 47.7776 38.7306 48.3182 38.7306 48.994C39.3253 48.5345 39.8118 48.156 40.3254 47.8046C43.407 45.561 46.5966 43.5607 50.2729 42.4254C51.7055 41.9929 53.1382 41.5064 54.6519 41.7497C55.0844 41.8578 55.5169 41.9929 55.598 42.4525C55.7061 42.939 55.2466 43.0742 54.9222 43.2634C54.8952 43.2904 54.8682 43.2904 54.8411 43.3175C52.2732 44.5609 49.7052 45.8314 47.1373 47.1018C44.4342 48.4263 41.731 49.7238 39.0009 51.0213C38.7576 51.1565 38.4873 51.2376 38.4873 51.589C38.5143 52.7784 38.6225 53.9407 38.9468 55.103C39.0279 55.4004 39.1901 55.6166 39.5956 55.4004C41.8392 54.2921 44.1368 53.2649 46.3534 52.1026C49.516 50.4537 52.7327 48.967 56.1386 47.9398C61.3286 46.399 66.6267 45.9935 71.9789 46.6153C74.9793 46.9667 77.9528 47.5614 80.8181 48.5345C81.1695 48.6426 81.3587 48.6156 81.3857 48.1831C81.4939 47.2099 81.629 46.2368 82.0074 45.2907C82.2507 44.669 82.2237 44.669 81.602 44.4798C79.0881 43.7229 76.5472 43.2093 73.9522 42.885C70.7625 42.4795 67.5188 42.3984 64.275 42.5876C63.3289 42.6417 62.3558 42.7228 61.4097 42.3984C60.6258 42.1281 60.3555 41.7767 60.3825 41.0468C60.4366 40.4251 60.761 40.1278 61.5719 40.0197C62.6261 39.8575 63.7074 39.8034 64.7886 39.7494C65.1941 39.7223 65.4914 39.8034 65.8158 40.0737C66.843 40.9928 68.3027 41.155 69.492 40.5333C70.6273 39.9386 71.4112 38.6411 71.3031 37.4517C71.168 36.0731 70.5192 35.0189 69.1947 34.5053C68.7622 34.3702 68.3297 34.2891 67.9242 34.2891C67.0592 34.2891 66.2753 34.6405 65.5725 35.3433Z" fill="#00F0FF"/>
<path d="M66.4915 68.0236C66.6266 68.1858 66.6536 68.2399 66.7077 68.2939C68.735 69.9158 70.3839 71.862 71.5463 74.2137C71.6274 74.403 71.7625 74.4841 71.9788 74.4841C72.6005 74.4841 73.0871 74.8084 73.5466 75.1598C74.7089 76.0789 75.7631 77.1331 76.5741 78.3765C78.7906 81.8095 79.2502 85.5668 78.6014 89.5134C78.0608 92.7301 76.8444 95.7576 75.4658 98.704C74.5197 100.731 73.4925 102.678 72.4383 104.651C72.2221 105.056 72.3032 105.273 72.7086 105.462C73.2763 105.759 73.8439 105.678 74.4116 105.543C74.8981 105.408 75.4117 105.246 75.9253 105.273C76.4389 105.3 76.7092 105.083 76.9255 104.624C78.25 101.84 79.6016 99.0824 80.872 96.2712C82.602 92.3787 83.44 88.351 82.8994 84.0801C81.9533 76.3222 76.0064 69.8347 68.3566 68.2939C67.843 68.1858 67.3294 68.0506 66.7077 68.0506C66.5996 67.9966 66.5455 67.9966 66.4915 68.0236Z" fill="#00F0FF"/>
<path d="M73.0063 78.4588C73.3307 80.1617 73.3847 81.8917 73.1955 83.6217C73.0333 85.0544 72.5468 86.3789 72.2494 87.7575C71.8169 89.8389 70.9519 91.704 70.0869 93.5692C69.9247 93.9476 69.6815 94.1639 69.276 94.299C67.7082 94.8126 66.8162 96.1372 66.8162 97.7861C66.8162 99.3268 67.573 100.435 68.9516 101.057C70.3302 101.679 71.6547 101.489 72.79 100.516C73.9524 99.5431 74.3579 98.2456 73.9524 96.7589C73.8443 96.3804 73.8713 96.0831 74.0335 95.7317C75.6283 92.3798 76.6014 88.8928 76.2771 85.1084C76.0608 82.7027 75.358 80.5132 73.8713 78.5939C73.601 78.2425 73.3577 77.8641 72.8711 77.5127C72.9252 77.9182 72.9522 78.1885 73.0063 78.4588Z" fill="#00F0FF"/>
</svg>
