<svg width="18" height="16" viewBox="0 0 18 16" fill="none" xmlns="http://www.w3.org/2000/svg">
<path d="M1.5 7.99976H12" stroke="#807DC0" stroke-width="1.5" stroke-linecap="round" stroke-linejoin="round"/>
<path d="M9.5 10.4998L12 7.99976L9.5 5.49976" stroke="#807DC0" stroke-width="1.5" stroke-linecap="round" stroke-linejoin="round"/>
<path d="M3.20398 11.0637C3.89201 12.4772 5.03579 13.6179 6.45108 14.3021C7.86637 14.9864 9.47078 15.1743 11.0059 14.8356C12.541 14.497 13.9174 13.6515 14.9135 12.4353C15.9095 11.2191 16.4672 9.70303 16.4967 8.1313C16.5262 6.55956 16.0257 5.02364 15.076 3.77095C14.1263 2.51826 12.7825 1.62171 11.2612 1.22573C9.73987 0.82974 8.12954 0.957363 6.68958 1.58804C5.24963 2.21872 4.06387 3.31573 3.32331 4.70239" stroke="#807DC0" stroke-width="1.5" stroke-linecap="round" stroke-linejoin="round"/>
</svg>
