<svg width="273" height="71" viewBox="0 0 273 71" fill="none" xmlns="http://www.w3.org/2000/svg">
<path d="M75.7997 15.784C72.3042 16.8595 69.9111 19.1719 68.6473 22.6137C67.9482 24.5228 67.7062 26.5126 67.7062 28.9326C67.6793 30.277 67.8406 31.9979 68.3784 33.665C69.7497 37.8328 72.3311 40.7906 76.7677 41.8124C78.9188 42.2964 81.0968 42.377 83.3017 42.1888C88.787 41.7586 92.0944 38.2899 93.3313 33.2617C93.4119 32.9659 93.3581 32.7777 93.0355 32.697C90.7499 31.9979 88.4913 31.3257 86.2326 30.6266C85.883 30.519 85.7486 30.6535 85.6679 30.9762C85.5604 31.487 85.4259 31.9979 85.2108 32.4819C84.8613 33.3693 84.4579 34.2028 83.6513 34.7944C81.2044 36.569 77.6282 35.3859 76.8484 32.4819C76.2299 30.1426 76.23 27.7764 76.7408 25.437C77.1442 23.5548 78.2466 22.2373 80.2364 21.8339C82.2799 21.4037 84.5655 22.2911 85.3184 24.8455C85.4259 25.195 85.5335 25.437 85.9906 25.3295C88.2224 24.8186 90.481 24.3077 92.7128 23.8237C93.0893 23.7431 93.1699 23.5817 93.0624 23.2053C92.7666 22.3448 92.417 21.5113 91.9868 20.7046C90.6693 18.3115 88.787 16.5637 86.0982 15.784C84.4042 15.2731 82.7102 15.0311 80.9893 15.0311C79.2415 15.0042 77.5206 15.2462 75.7997 15.784Z" fill="white"/>
<path d="M144.07 34.5528C143.452 32.9126 143.479 31.2455 144.124 29.6053C144.474 28.691 145.227 28.1533 146.275 28.0995C147.351 28.0457 148.077 28.5566 148.561 29.4439C148.991 30.2775 149.072 31.1648 149.045 32.0253C149.045 32.8319 149.018 33.5848 148.803 34.3108C148.453 35.4133 147.674 36.0855 146.706 36.1392C146.652 36.1392 146.598 36.1392 146.544 36.1392C145.415 36.1661 144.447 35.5746 144.07 34.5528ZM143.049 24.7384C142.78 25.0879 142.538 25.1417 142.108 24.9535C140.198 24.1468 138.262 23.367 136.326 22.5604C135.735 22.3184 135.708 22.3453 135.708 22.9637C135.708 31.4068 135.708 39.823 135.708 48.2661C135.708 48.777 135.896 48.9115 136.38 48.9115C138.585 48.8846 140.79 48.8846 143.022 48.9115C143.533 48.9115 143.721 48.7501 143.721 48.2392C143.694 45.9268 143.721 43.5875 143.721 41.275C143.721 41.0868 143.667 40.8717 143.802 40.6566C144.447 41.0599 145.038 41.4632 145.738 41.7321C146.464 42.001 147.19 42.1355 147.942 42.2161C151.142 42.6463 154.638 40.7104 155.875 37.7257C157.407 34.015 157.327 30.2506 155.686 26.5937C154.88 24.7922 153.589 23.3402 151.653 22.6142C150.766 22.2915 149.771 22.1033 148.776 22.1033C146.679 22.1033 144.528 22.8562 143.049 24.7384Z" fill="white"/>
<path d="M119.386 22.5325C117.8 22.5594 116.187 22.5594 114.6 22.5325C113.847 22.5325 113.121 22.5325 112.368 22.5325C111.669 22.5325 111.642 22.5594 111.911 23.1778C112.449 24.4685 112.987 25.7591 113.525 27.0498C115.461 31.6478 117.397 36.2458 119.306 40.8438C119.413 41.1127 119.602 41.3547 119.494 41.6773C119.037 42.8336 118.392 43.6402 116.94 43.694C115.73 43.7478 114.52 43.6133 113.336 43.2369C112.906 43.1024 112.772 43.1831 112.826 43.6402C113.014 45.2804 113.202 46.9207 113.39 48.5609C113.417 48.9104 113.632 48.9642 113.901 48.9911C116.052 49.26 118.203 49.5558 120.408 49.2869C122.774 48.9911 124.657 47.9693 125.813 45.7644C126.593 44.2587 127.184 42.6453 127.776 41.0589C129.981 35.1165 132.186 29.174 134.39 23.2047C134.606 22.6131 134.606 22.5862 133.987 22.5862C131.782 22.5862 129.604 22.5862 127.399 22.5594C126.915 22.5594 126.727 22.7207 126.62 23.1509C126.055 25.2214 125.436 27.2918 124.845 29.3622C124.442 30.7873 124.011 32.2125 123.608 33.6376C123.554 33.6376 123.527 33.6376 123.474 33.6376C123.393 33.3687 123.285 33.0998 123.205 32.8309C122.21 29.6042 121.215 26.4045 120.22 23.1778C120.086 22.6938 119.87 22.5325 119.386 22.5325Z" fill="white"/>
<path d="M188.652 29.632C189.055 27.7498 190.669 26.728 192.524 27.1851C193.653 27.454 194.541 28.6102 194.621 29.8202C194.648 30.1698 194.46 30.1698 194.218 30.1698H191.61C190.749 30.1698 189.916 30.1429 189.055 30.1698C189.055 30.1698 189.029 30.1698 189.002 30.1698C188.652 30.1698 188.571 30.0084 188.652 29.632ZM188.491 22.3451C185.479 22.9098 183.113 24.4424 181.634 27.1851C180.397 29.4706 180.209 31.9713 180.693 34.472C181.338 37.8331 183.785 41.2211 188.087 41.9202C189.862 42.216 191.637 42.2428 193.438 42.1622C197.31 41.9471 200.268 40.3337 202.177 36.9188C202.5 36.3542 202.473 36.3004 201.855 36.2466C199.784 36.0584 197.714 35.8971 195.643 35.6551C195.052 35.6013 194.621 35.682 194.245 36.166C193.385 37.2415 192.148 37.4297 190.884 37.1608C189.755 36.9188 189.055 36.1391 188.733 35.0097C188.545 34.3375 188.545 34.3106 189.244 34.3106C193.196 34.3106 197.149 34.3106 201.102 34.3106C201.451 34.3106 201.801 34.2837 202.15 34.3106C202.581 34.3375 202.742 34.1493 202.715 33.7191C202.688 33.3695 202.715 33.02 202.715 32.536C202.742 31.7562 202.661 30.842 202.473 29.9278C201.747 26.1095 199.569 23.5551 195.751 22.5602C194.406 22.2107 193.008 22.0493 191.637 22.0493C190.561 22.0762 189.539 22.1569 188.491 22.3451Z" fill="white"/>
<path d="M258.133 29.7659C258.375 28.5828 258.966 27.5879 260.176 27.2383C261.333 26.9157 262.489 26.9963 263.376 28.0181C263.806 28.529 263.968 29.1206 264.102 29.739C264.183 30.0617 263.995 30.1423 263.699 30.1423C262.838 30.1423 261.951 30.1423 261.091 30.1423H258.536C258.294 30.1423 258.052 30.1423 258.133 29.7659ZM258.778 22.237C255.31 22.6941 252.54 24.3075 250.98 27.5072C249.663 30.2499 249.609 33.127 250.604 35.9772C251.545 38.6392 253.32 40.5752 256.036 41.5432C257.649 42.1348 259.37 42.2154 260.768 42.2423C262.139 42.2423 263.242 42.1348 264.317 42.0003C267.732 41.5701 270.152 39.6879 271.792 36.7301C271.981 36.4074 271.927 36.2461 271.523 36.2192C269.507 36.031 267.517 35.8966 265.527 35.6546C264.64 35.5201 264.075 35.789 263.457 36.4074C261.817 38.0745 258.94 37.2948 258.24 35.1168C257.998 34.3908 258.052 34.3101 258.832 34.3101C263.08 34.3101 267.329 34.3101 271.55 34.3101C272.034 34.3101 272.223 34.1757 272.223 33.6648C272.223 32.5086 272.169 31.3792 272.007 30.2499C271.389 26.109 268.727 23.2588 264.747 22.4521C263.511 22.2101 262.274 22.0757 261.037 22.0757C260.311 22.0757 259.531 22.1295 258.778 22.237Z" fill="white"/>
<path d="M212.422 25.0872C212.18 25.383 211.992 25.4099 211.642 25.2486C209.787 24.3881 207.931 23.5277 206.049 22.6672C205.162 22.2639 205.162 22.2639 205.162 23.205V32.0783C205.162 35.0899 205.162 38.1283 205.162 41.1668C205.162 41.6777 205.323 41.8659 205.861 41.839C207.34 41.8121 208.819 41.839 210.325 41.839C210.97 41.839 211.588 41.839 212.234 41.839C213.121 41.839 213.121 41.839 213.121 40.9248C213.121 37.8594 213.121 34.7941 213.148 31.7288C213.148 31.0566 213.282 30.4381 213.524 29.8197C213.928 28.8517 214.815 28.3677 215.944 28.4752C216.885 28.5559 217.396 29.0937 217.611 30.1961C217.692 30.5457 217.692 30.8683 217.692 31.2179C217.692 34.4983 217.692 37.7788 217.692 41.0592C217.692 41.8121 217.719 41.839 218.445 41.839C220.569 41.839 222.693 41.839 224.818 41.839C225.57 41.839 225.57 41.8121 225.57 41.0592C225.57 37.0797 225.57 33.0732 225.57 29.0937C225.57 28.5559 225.544 28.045 225.436 27.5341C225.006 25.0872 223.823 23.1781 221.322 22.479C220.381 22.2101 219.494 22.0757 218.633 22.0757C216.267 22.0757 214.17 23.0706 212.422 25.0872Z" fill="white"/>
<path d="M237.133 22.1033C235.251 22.1839 233.368 22.3722 231.648 23.2864C229.658 24.3888 228.528 26.0559 228.582 28.3415C228.636 30.6001 229.792 32.2135 231.755 33.2353C232.938 33.8537 234.256 34.0419 235.573 34.3108C237.106 34.6335 238.665 34.7948 240.144 35.2788C240.548 35.4132 240.924 35.6284 240.978 36.1124C241.032 36.6232 240.736 36.919 240.333 37.161C238.665 38.1828 236.434 37.4837 235.681 35.6821C235.546 35.3326 235.358 35.225 234.982 35.2519C232.75 35.467 230.518 35.6821 228.286 35.8704C227.749 35.9241 227.722 36.1392 227.829 36.5695C228.609 39.5272 230.572 41.2212 233.53 41.8128C235.842 42.2968 238.208 42.3775 240.575 42.1086C242.403 41.9204 244.151 41.4901 245.657 40.3608C247.593 38.8819 248.561 36.9459 248.157 34.499C247.781 32.2135 246.329 30.8153 244.231 30.0355C242.564 29.3901 240.817 29.175 239.069 28.9599C238.155 28.8524 237.24 28.7448 236.353 28.449C236.03 28.3415 235.761 28.1533 235.735 27.7768C235.708 27.3735 235.923 27.1046 236.272 26.8895C236.541 26.7282 236.81 26.7013 237.106 26.6744C238.504 26.4324 239.526 26.9433 240.144 28.2339C240.252 28.449 240.386 28.5297 240.601 28.5028C241.112 28.449 241.623 28.4222 242.107 28.3684C243.828 28.1802 245.522 28.0188 247.243 27.8306C247.539 27.8037 247.727 27.7499 247.593 27.3735C246.813 25.3299 245.603 23.6628 243.479 22.8562C241.758 22.1839 239.929 22.157 238.128 22.1302C237.913 22.1302 237.697 22.1302 237.482 22.1302C237.375 22.1033 237.24 22.1033 237.133 22.1033Z" fill="white"/>
<path d="M163.726 22.64C162.22 23.0702 160.93 23.85 160.016 25.1406C157.999 28.0177 159.37 32.2124 162.731 33.4493C164.372 34.0677 166.092 34.3366 167.813 34.6324C168.781 34.8206 169.776 34.9551 170.717 35.2777C171.121 35.4122 171.416 35.6811 171.47 36.1382C171.497 36.5684 171.282 36.8642 170.932 37.0793C170.825 37.1599 170.69 37.2406 170.556 37.2944C168.754 38.0742 166.926 37.375 166.146 35.6004C166.039 35.3315 165.904 35.1971 165.582 35.2239C165.098 35.2777 164.614 35.3046 164.13 35.3584C162.355 35.5197 160.553 35.7079 158.779 35.8693C158.295 35.9231 158.214 36.1113 158.348 36.5415C159.074 39.311 160.849 41.0319 163.619 41.7042C166.119 42.3226 168.647 42.3764 171.174 42.1075C172.653 41.9462 174.078 41.6235 175.369 40.8706C177.735 39.5262 178.999 37.5095 178.73 34.7668C178.461 32.1855 176.794 30.6797 174.428 29.8731C172.842 29.3353 171.174 29.1202 169.534 28.9051C168.647 28.7975 167.733 28.7168 166.872 28.3942C166.55 28.2597 166.281 28.0984 166.254 27.6951C166.227 27.2917 166.442 27.0497 166.765 26.8615C168.028 26.1086 170.099 26.7271 170.637 28.0984C170.744 28.3942 170.906 28.4748 171.201 28.448C171.658 28.3942 172.142 28.3673 172.6 28.3135C174.347 28.1253 176.095 27.964 177.843 27.7757C178.166 27.7488 178.273 27.6413 178.139 27.3186C177.171 24.7104 175.45 22.9357 172.626 22.3711C171.309 22.1022 169.964 22.0484 168.62 22.0753C168.432 22.0753 168.27 22.0753 168.109 22.0753C166.63 22.1022 165.151 22.2366 163.726 22.64Z" fill="white"/>
<path d="M104.517 23.1519C103.952 23.6359 103.522 24.2544 103.172 24.9266C102.957 25.3568 102.742 25.3837 102.312 25.1955C100.43 24.3082 98.5207 23.4477 96.6116 22.5873C96.0469 22.3184 95.9932 22.3184 95.9932 22.9906C95.9932 26.0022 95.9932 29.0137 95.9932 32.0253C95.9932 35.0368 95.9932 38.0484 95.9932 41.0599C95.9932 41.8128 96.02 41.8397 96.746 41.8397C98.8972 41.8397 101.021 41.8397 103.172 41.8397C103.925 41.8397 103.952 41.8128 103.952 41.033C103.952 38.5324 103.952 36.0317 103.979 33.531C104.006 32.321 104.167 31.1379 104.624 30.0086C105.001 29.1213 105.566 28.4759 106.614 28.4221C107.286 28.3953 107.905 28.5835 108.523 28.8255C108.819 28.9599 109.007 28.933 109.169 28.6104C109.868 26.9702 110.567 25.3568 111.293 23.7166C111.454 23.367 111.32 23.1788 111.024 23.0444C110.137 22.6142 109.222 22.2646 108.228 22.157C107.986 22.1302 107.744 22.1033 107.475 22.1033C106.399 22.1033 105.404 22.399 104.517 23.1519Z" fill="white"/>
<path d="M24.926 14.7349C21.4305 15.1113 18.0425 15.9449 14.762 17.1818C10.2447 18.8758 6.21139 21.3227 2.71584 24.6569C2.33939 25.0064 2.28562 25.3022 2.58139 25.7324C3.09228 26.4853 3.65695 27.2113 4.22161 27.8835C4.51739 28.2331 4.7325 28.2331 5.05517 27.9373C6.58783 26.4853 8.22805 25.2484 10.0027 24.1191C11.7505 23.0167 13.5789 22.0487 15.5149 21.2958C16.2678 21 17.0207 20.9193 17.8005 21.1882C18.4996 21.4571 18.6609 21.9949 18.1769 22.5327C17.7198 23.1511 17.1283 23.5544 16.456 23.8502C15.2998 24.3342 14.1705 24.872 13.068 25.4635C10.89 26.6198 8.87338 27.9911 7.04494 29.6313C6.69539 29.954 6.61472 30.1422 7.04494 30.438C7.93227 31.0564 8.8465 31.5942 9.78761 32.1051C10.164 32.2933 10.406 32.2395 10.7018 31.9706C11.4278 31.2715 12.2345 30.6531 13.0949 30.0884C18.4727 26.4853 24.442 25.2484 30.7878 25.6249C34.364 25.84 37.7251 26.9155 40.9518 28.4751C41.2744 28.6364 41.5164 28.8246 41.6509 29.1742C42.2156 30.5455 43.56 31.3253 45.0658 31.164C45.3615 31.1371 45.5767 31.1909 45.8187 31.3522C47.5127 32.5622 49.126 33.9066 50.4973 35.4931C51.5191 36.7031 52.514 37.9131 52.9442 39.4995C53.1593 40.3062 53.0249 40.9246 52.5678 41.1666C52.1106 41.4086 51.4922 41.1666 50.9813 40.5213C50.2822 39.6071 49.5831 38.6928 48.9378 37.7786C47.5396 35.8157 45.9531 34.0142 43.8827 32.7235C36.8647 28.26 29.3627 26.9693 21.296 29.1742C20.3549 29.4431 19.4407 29.7658 18.5534 30.2766C18.6609 30.3035 18.7685 30.3304 18.8491 30.3304C21.2423 30.5724 23.5278 31.164 25.652 32.2933C25.894 32.4277 26.136 32.4009 26.4049 32.3471C28.4216 32.0513 30.4114 32.132 32.428 32.4546C37.1605 33.2344 41.14 35.4393 44.3936 38.9348C48.0773 42.8606 50.0402 47.5124 50.1747 52.917C50.2015 53.6699 50.1747 54.3959 50.1478 55.1488C50.1478 55.2833 50.094 55.4177 50.2284 55.4984C50.3629 55.579 50.4704 55.4446 50.5511 55.3639C51.2233 54.8799 51.8955 54.369 52.5947 53.9119C53.9929 53.0246 54.5306 51.7608 54.2887 50.1475C54.2618 49.9324 54.2349 49.7173 54.208 49.5022C54.0735 48.5611 54.0735 47.5393 53.7509 46.6788C53.2938 45.5226 53.1593 44.3395 52.9442 43.1564C52.9173 42.9682 52.9173 42.7531 53.0249 42.5917C53.8853 41.2204 54.6113 39.7684 55.7944 38.6391C56.9238 37.5635 56.8969 37.5366 56.0633 36.2191C53.9929 32.9386 51.4115 30.0884 48.3193 27.7491C48.1042 27.5878 47.916 27.4264 47.8622 27.1306C47.4051 25.3291 45.7918 24.3073 43.9902 24.6569C43.6407 24.7106 43.3718 24.6838 43.0491 24.5224C37.7789 21.9411 32.186 20.9731 26.3511 21.4571C25.5445 21.5109 24.7109 21.4033 23.9043 21.242C23.4203 21.1613 23.1783 20.8655 23.1245 20.4084C23.0707 19.9244 23.232 19.548 23.6623 19.3329C23.958 19.1715 24.3076 19.064 24.6302 19.0102C25.2756 18.8489 25.894 18.8758 26.5394 18.8758C26.7814 18.8758 26.9965 18.8758 27.2385 18.8758C29.5509 18.8489 31.8365 18.7682 34.122 19.1447C38.3436 19.8438 42.2962 21.242 46.0069 23.3662C49.7444 25.5173 53.0249 28.2062 55.8213 31.4866C56.8431 32.6697 57.7573 33.9066 58.6178 35.2242C58.7253 35.4124 58.8598 35.7351 59.1286 35.4393C59.9353 34.6595 60.7689 33.9335 61.3604 32.9924C61.5217 32.7504 61.468 32.5622 61.3335 32.3471C59.4782 29.5238 57.354 26.9155 54.8264 24.63C54.5844 24.4149 54.3693 24.3342 54.0466 24.388C53.0249 24.5224 52.03 24.5493 51.0082 24.3342C47.1631 23.5813 44.5549 21.3495 43.2104 17.6658C43.076 17.3162 42.8878 17.1011 42.5113 16.9667C41.6509 16.6978 40.8173 16.402 39.9569 16.16C36.2731 15.0844 32.5356 14.5198 28.7442 14.5198C27.5074 14.5198 26.2167 14.6004 24.926 14.7349Z" fill="white"/>
<path d="M26.9426 1.04867C26.7275 1.23689 26.5124 1.31755 26.2435 1.34444C25.1142 1.39822 23.9849 1.452 22.8824 1.55955C18.15 1.96289 13.6058 3.22666 9.14221 4.75933C7.09866 5.43155 5.16266 6.42643 3.28044 7.50199C2.98466 7.69021 2.76955 7.87843 2.58133 8.17421C1.64022 9.62621 0.967999 11.2126 0.537777 12.8798C0.403333 13.4175 0.242 13.9553 0.242 14.6275C0.833554 14.1704 1.31755 13.794 1.82844 13.4444C4.89377 11.2126 8.06665 9.22287 11.7235 8.09354C13.1486 7.66332 14.5738 7.17932 16.0795 7.42132C16.5098 7.52888 16.94 7.66332 17.0206 8.12043C17.1282 8.60443 16.6711 8.73888 16.3484 8.9271C16.3215 8.95399 16.2946 8.95399 16.2678 8.98088C13.7133 10.2178 11.1589 11.4815 8.60443 12.7453C5.91555 14.0629 3.22666 15.3535 0.510888 16.6442C0.268888 16.7786 0 16.8593 0 17.2089C0.0268888 18.392 0.134444 19.5482 0.45711 20.7044C0.537777 21.0002 0.69911 21.2153 1.10244 21.0002C3.33422 19.8977 5.61977 18.876 7.82465 17.7198C10.9706 16.0795 14.1704 14.6006 17.5584 13.5789C22.7211 12.0462 27.9913 11.6429 33.3153 12.2613C36.2999 12.6109 39.2577 13.2024 42.1079 14.1704C42.4575 14.278 42.6457 14.2511 42.6726 13.8209C42.7802 12.8529 42.9146 11.8849 43.291 10.9438C43.533 10.3253 43.5062 10.3253 42.8877 10.1371C40.387 9.38421 37.8595 8.87332 35.2782 8.55065C32.1053 8.14732 28.8786 8.06665 25.652 8.25488C24.7108 8.30865 23.7429 8.38932 22.8017 8.06665C22.022 7.79777 21.7531 7.44821 21.78 6.72221C21.8337 6.10377 22.1564 5.80799 22.9631 5.70044C24.0117 5.5391 25.0873 5.48532 26.1628 5.43155C26.5662 5.40466 26.862 5.48533 27.1846 5.75421C28.2064 6.66843 29.6584 6.82977 30.8415 6.21132C31.9708 5.61977 32.7506 4.3291 32.6431 3.146C32.5086 1.77466 31.8633 0.725999 30.5457 0.215111C30.1155 0.0806665 29.6853 0 29.282 0C28.4215 0 27.6417 0.349555 26.9426 1.04867Z" fill="white"/>
<path d="M27.8567 33.5577C27.9911 33.719 28.018 33.7728 28.0718 33.8266C30.0885 35.4399 31.7287 37.3759 32.8849 39.7152C32.9656 39.9035 33.1 39.9841 33.3151 39.9841C33.9336 39.9841 34.4176 40.3068 34.8747 40.6564C36.0309 41.5706 37.0796 42.6192 37.8862 43.8561C40.0911 47.271 40.5482 51.0086 39.9029 54.9343C39.3651 58.1341 38.1551 61.1457 36.7838 64.0765C35.8427 66.0932 34.8209 68.0292 33.7722 69.9921C33.5571 70.3954 33.6378 70.6105 34.0411 70.7988C34.6058 71.0945 35.1705 71.0139 35.7351 70.8794C36.2191 70.745 36.73 70.5836 37.2409 70.6105C37.7518 70.6374 38.0207 70.4223 38.2358 69.9652C39.5533 67.1957 40.8978 64.453 42.1616 61.6565C43.8824 57.7846 44.716 53.7781 44.1782 49.5297C43.2371 41.8126 37.3216 35.3593 29.712 33.8266C29.2011 33.719 28.6902 33.5846 28.0718 33.5846C27.9642 33.5308 27.9105 33.5308 27.8567 33.5577Z" fill="white"/>
<path d="M34.337 43.937C34.6597 45.631 34.7134 47.3518 34.5252 49.0727C34.3639 50.4978 33.8799 51.8154 33.5841 53.1867C33.1539 55.2572 32.2934 57.1125 31.433 58.9678C31.2717 59.3443 31.0297 59.5594 30.6263 59.6938C29.0668 60.2047 28.1794 61.5223 28.1794 63.1625C28.1794 64.6952 28.9323 65.7976 30.3037 66.416C31.675 67.0345 32.9925 66.8463 34.1219 65.8783C35.2781 64.9103 35.6814 63.6196 35.2781 62.1407C35.1705 61.7643 35.1974 61.4685 35.3588 61.1189C36.9452 57.7847 37.9132 54.3161 37.5905 50.5516C37.3754 48.1585 36.6763 45.9805 35.1974 44.0714C34.9285 43.7218 34.6865 43.3454 34.2025 42.9958C34.2563 43.3992 34.2832 43.6681 34.337 43.937Z" fill="white"/>
<path d="M227.641 64.1292C226.592 64.1292 225.544 64.1292 224.495 64.1292C224.307 64.1292 224.065 64.183 223.957 63.9679C223.823 63.699 224.118 63.6452 224.253 63.5377C224.576 63.2419 224.495 62.8654 224.36 62.5428C224.065 61.8705 222.882 61.1714 222.156 61.2252C221.967 61.2252 221.887 61.3328 221.833 61.4672C221.672 61.8974 221.51 62.3277 221.403 62.7579C221.295 63.1074 221.268 63.4839 221.725 63.6721C221.833 63.7259 221.887 63.8065 221.86 63.941C221.833 64.1023 221.698 64.1292 221.591 64.1292C220.892 64.1292 220.166 64.1292 219.467 64.1292C219.332 64.1292 219.225 64.0754 219.198 63.9141C219.171 63.7528 219.252 63.6721 219.386 63.6183C219.924 63.4032 220.112 62.9461 220.3 62.4621C220.892 60.8488 221.483 59.2354 222.075 57.5952C222.182 57.2726 222.263 57.0037 222.021 56.681C221.833 56.4659 221.967 56.2508 222.263 56.2508C223.285 56.2508 224.307 56.2239 225.302 56.2508C225.597 56.2508 225.705 56.4659 225.49 56.681C225.248 56.9499 225.328 57.2188 225.409 57.4877C226.001 59.2354 226.565 60.9563 227.157 62.6772C227.238 62.9192 227.345 63.1343 227.48 63.3494C227.614 63.5645 227.856 63.6452 228.098 63.5914C228.367 63.5377 228.474 63.2957 228.474 63.0537C228.474 61.8974 228.474 60.7412 228.474 59.585C228.474 59.3161 228.34 59.2086 228.071 59.1817C227.937 59.1548 227.829 59.101 227.829 58.9397C227.829 58.7783 227.91 58.6977 228.044 58.6708C228.367 58.5901 228.555 58.4019 228.582 58.0792C228.663 56.6541 229.55 56.0088 230.921 55.8474C231.056 55.8206 231.217 55.8206 231.352 55.8206C232.75 55.8474 232.992 56.2508 232.427 57.5146C232.373 57.649 232.32 57.7566 232.158 57.7566C231.997 57.7566 231.97 57.6221 231.943 57.4877C231.943 57.3263 231.916 57.165 231.809 57.0306C231.54 56.6541 231.083 56.681 230.894 57.0843C230.733 57.407 230.733 57.7834 230.814 58.1061C230.921 58.5094 231.325 58.3481 231.567 58.2943C231.97 58.1868 231.943 58.3481 231.889 58.6439C231.782 59.0203 231.701 59.3968 231.163 59.2892C230.921 59.2354 230.814 59.4237 230.814 59.6657C230.814 60.795 230.814 61.9512 230.841 63.0805C230.841 63.3494 230.975 63.5377 231.19 63.6452C231.325 63.7259 231.459 63.8065 231.405 63.9679C231.352 64.183 231.163 64.1561 231.002 64.1561C229.846 64.1292 228.743 64.1292 227.641 64.1292ZM222.989 58.2943C222.747 58.9666 222.371 59.5043 222.424 60.069C222.478 60.4185 223.15 60.3379 223.5 60.5261C223.527 60.5261 223.554 60.4992 223.634 60.4723C223.419 59.8001 223.231 59.101 222.989 58.2943Z" fill="#00F0FF"/>
<path d="M145.818 59.0484C146.356 58.5375 146.813 58.1342 147.485 58.0804C148.104 58.0535 148.211 58.1342 148.05 58.7527C148.023 58.8602 147.996 58.9678 147.969 59.0753C147.754 59.8282 147.754 59.8282 147.028 59.64C146.464 59.5055 146.007 59.8013 145.953 60.3929C145.845 61.3071 145.872 62.1944 145.926 63.1086C145.953 63.3506 146.087 63.512 146.275 63.6195C146.41 63.7002 146.517 63.7809 146.464 63.9422C146.41 64.0766 146.275 64.1035 146.141 64.1035C145.227 64.1035 144.286 64.1035 143.371 64.1035C143.237 64.1035 143.103 64.0766 143.049 63.9422C142.995 63.8078 143.076 63.7002 143.21 63.6464C143.506 63.512 143.533 63.2431 143.533 62.9473C143.533 61.7911 143.533 60.6618 143.533 59.5324C143.533 59.2904 143.479 59.0753 143.237 58.9409C143.076 58.8333 142.968 58.672 142.887 58.4838C142.699 57.8115 142.081 57.3813 141.409 57.3275C141.14 57.3007 141.086 57.4351 141.086 57.6502C141.086 59.4249 141.086 61.1995 141.086 62.9742C141.086 63.2431 141.22 63.512 141.516 63.6195C141.651 63.6733 141.785 63.7271 141.758 63.9153C141.731 64.1035 141.57 64.1304 141.435 64.1304C140.36 64.1304 139.257 64.1304 138.182 64.1304C138.047 64.1304 137.886 64.1035 137.859 63.9153C137.832 63.7271 137.967 63.6733 138.101 63.5926C138.424 63.4582 138.531 63.1624 138.531 62.8398C138.531 61.1189 138.531 59.398 138.558 57.6771C138.558 57.3813 138.451 57.2738 138.128 57.3275C137.402 57.462 136.945 57.8922 136.622 58.5375C136.542 58.6989 136.515 59.0215 136.219 58.914C135.923 58.8064 136.085 58.5375 136.111 58.3493C136.219 57.7309 136.353 57.1393 136.461 56.5478C136.515 56.3058 136.595 56.2251 136.891 56.2251C138.854 56.252 140.817 56.252 142.753 56.2251C143.049 56.2251 143.129 56.3058 143.183 56.5478C143.264 57.0049 143.398 57.4351 143.452 57.8922C143.506 58.2687 143.694 58.3762 144.044 58.2955C144.286 58.2418 144.555 58.2687 144.797 58.2418C145.415 58.1073 145.791 58.2686 145.818 59.0484Z" fill="#00F0FF"/>
<path d="M196.1 61.1988C196.1 61.6828 196.1 62.1668 196.1 62.6777C196.1 63.081 196.127 63.4843 196.557 63.6994C196.665 63.7532 196.719 63.8339 196.692 63.9683C196.665 64.1028 196.557 64.1297 196.45 64.1297C195.482 64.1297 194.487 64.1297 193.519 64.1297C193.411 64.1297 193.304 64.0759 193.277 63.9414C193.25 63.8339 193.304 63.7263 193.411 63.6725C193.788 63.4843 193.842 63.1617 193.842 62.8121C193.869 61.9785 193.869 61.145 193.842 60.3114C193.842 59.9888 193.842 59.5854 193.438 59.5048C193.008 59.451 192.793 59.8005 192.685 60.1501C192.417 61.1181 192.497 62.1399 192.551 63.1079C192.551 63.323 192.685 63.5112 192.901 63.6457C193.008 63.6994 193.062 63.807 193.035 63.9145C193.008 64.0759 192.874 64.1028 192.739 64.1028C191.825 64.1028 190.884 64.1028 189.97 64.1028C189.862 64.1028 189.755 64.0759 189.701 63.9414C189.647 63.807 189.728 63.6994 189.835 63.6457C190.185 63.4843 190.239 63.1348 190.239 62.8121C190.265 61.9517 190.265 61.1181 190.239 60.2577C190.212 59.9619 190.239 59.5317 189.808 59.4779C189.378 59.4241 189.163 59.8005 189.055 60.1501C188.787 61.1181 188.894 62.1399 188.948 63.1348C188.948 63.3499 189.082 63.5112 189.271 63.6188C189.378 63.6994 189.459 63.7801 189.432 63.9414C189.405 64.1028 189.271 64.1297 189.136 64.1297C188.222 64.1297 187.335 64.1297 186.42 64.1297C186.286 64.1297 186.151 64.1028 186.125 63.9414C186.098 63.8339 186.151 63.7263 186.259 63.6725C186.582 63.5112 186.609 63.2423 186.609 62.9197C186.609 61.7903 186.609 60.661 186.609 59.5585C186.609 59.2359 186.582 58.9401 186.232 58.7788C186.125 58.725 186.071 58.6443 186.071 58.5099C186.098 58.3485 186.232 58.3217 186.34 58.2948C186.985 58.241 187.63 58.2141 188.303 58.1603C188.679 58.1334 188.76 58.3754 188.813 58.6712C188.867 58.9939 189.002 58.967 189.19 58.7788C189.701 58.2679 190.319 58.0797 191.018 58.0797C191.529 58.0797 192.013 58.241 192.255 58.6981C192.443 59.0208 192.578 58.9132 192.793 58.7519C193.331 58.2948 193.949 58.0528 194.648 58.0797C195.536 58.0797 195.993 58.5099 196.1 59.4241C196.1 59.4779 196.1 59.5317 196.1 59.5854V61.1988Z" fill="#00F0FF"/>
<path d="M85.399 64.1299C84.6461 64.1299 83.9201 64.1299 83.1672 64.1299C82.979 64.1299 82.7908 64.1836 82.7101 63.9416C82.6295 63.7534 82.7908 63.6459 82.9252 63.5652C83.1403 63.4039 83.1672 63.1619 83.1672 62.9467C83.1672 61.0914 83.1672 59.2361 83.1672 57.4076C83.1672 57.1388 83.1135 56.8968 82.8446 56.7623C82.7101 56.7085 82.6563 56.601 82.6832 56.4665C82.7101 56.2783 82.8715 56.2783 83.0328 56.2783C84.5655 56.3321 86.0712 56.117 87.577 56.3859C89.8626 56.7892 91.4221 59.0747 91.0188 61.3603C90.723 63.0274 89.3786 64.103 87.4963 64.1567C86.7972 64.1299 86.0981 64.1299 85.399 64.1299ZM85.7217 60.2847C85.7217 61.0376 85.7217 61.7636 85.7217 62.5165C85.7217 63.0005 85.9906 63.2425 86.4477 63.1887C87.1737 63.135 87.7652 62.8123 88.0879 62.1401C88.4643 61.3872 88.4374 60.5805 88.3299 59.8007C88.1954 58.8596 87.8728 57.9992 87.0123 57.4614C86.2326 57.0043 85.7486 57.2732 85.7217 58.1605C85.7217 58.8596 85.7217 59.5588 85.7217 60.2847Z" fill="#00F0FF"/>
<path d="M212.18 66.7376C211.104 66.6839 210.083 66.4957 209.142 65.9579C208.577 65.6352 208.55 65.6083 208.926 65.0705C209.142 64.7748 209.357 64.479 209.572 64.1832C209.652 64.0757 209.76 63.995 209.894 64.0488C210.029 64.1025 210.029 64.1832 210.029 64.3177C210.11 65.1243 210.244 65.3394 211.024 65.5008C211.723 65.6621 212.422 65.7159 213.094 65.4201C213.417 65.2857 213.686 65.0705 213.632 64.6941C213.578 64.2639 213.229 64.2639 212.879 64.2101C212.261 64.1025 211.642 64.1832 211.051 64.0488C209.061 63.5917 208.039 61.3599 209.034 59.5583C209.572 58.5903 210.513 58.2677 211.508 58.2139C212.772 58.1332 214.035 58.187 215.326 58.187C215.46 58.187 215.649 58.1601 215.702 58.3214C215.783 58.5366 215.595 58.5903 215.46 58.671C215.192 58.8054 215.138 59.0474 215.138 59.3163C215.138 60.365 215.138 61.4137 215.138 62.4623C215.138 62.8119 215.299 63.0808 215.487 63.3497C216.267 64.3177 216.052 65.3663 215.003 66.0116C214.143 66.5494 213.148 66.6839 212.18 66.7376ZM212.798 60.9834C212.798 60.5801 212.798 60.1768 212.798 59.8003C212.798 59.5583 212.933 59.2357 212.664 59.1012C212.368 58.9668 212.072 59.155 211.804 59.3163C211.562 59.4777 211.4 59.7197 211.293 60.0154C211.024 60.7683 210.997 61.5212 211.239 62.301C211.32 62.5161 211.427 62.7312 211.615 62.8925C211.857 63.1077 212.18 63.1883 212.476 63.0808C212.798 62.9732 212.798 62.6774 212.798 62.4085C212.798 61.9245 212.798 61.4405 212.798 60.9834Z" fill="#00F0FF"/>
<path d="M100.188 58.1878C100.806 58.1878 101.425 58.1878 102.043 58.1878C102.205 58.1878 102.393 58.134 102.447 58.3491C102.5 58.5374 102.339 58.5911 102.205 58.6449C101.936 58.7794 101.936 58.9945 101.936 59.2365C101.936 60.3389 101.936 61.4145 101.936 62.49C101.936 62.8127 102.043 63.1085 102.285 63.3236C103.011 63.9958 102.877 65.1789 101.936 65.8511C100.968 66.5502 99.8652 66.6847 98.7359 66.6847C97.6872 66.6578 96.6923 66.3889 95.7781 65.8511C95.4554 65.6629 95.321 65.4747 95.6168 65.1251C95.8588 64.8025 96.1008 64.4798 96.3428 64.1571C96.4234 64.0496 96.531 63.9689 96.6654 64.0227C96.8268 64.0765 96.8268 64.2109 96.7999 64.3454C96.6923 64.8294 96.9343 65.1251 97.3376 65.3134C98.1174 65.6629 98.951 65.6898 99.7845 65.4209C100.161 65.3134 100.43 65.0714 100.403 64.6411C100.349 64.184 99.9728 64.2378 99.6501 64.1571C99.0048 64.0496 98.3325 64.1571 97.7141 63.9689C96.531 63.6194 95.7243 62.8665 95.5361 61.6296C95.3479 60.4465 95.5361 59.3171 96.6654 58.618C97.2301 58.2685 97.8485 58.1609 98.4939 58.134C99.0316 58.1878 99.6232 58.1878 100.188 58.1878ZM99.5963 60.9842C99.5963 60.554 99.5963 60.1238 99.5963 59.6936C99.5963 59.0214 99.3812 58.8869 98.7628 59.1827C98.5745 59.2903 98.3863 59.4247 98.2788 59.586C97.9023 60.1507 97.7948 60.796 97.8485 61.4414C97.8754 61.9254 97.9561 62.4094 98.3056 62.8127C98.5745 63.0816 98.8972 63.1891 99.2468 63.0547C99.5963 62.9471 99.5963 62.6245 99.5963 62.3287C99.5963 61.8985 99.5963 61.4414 99.5963 60.9842Z" fill="#00F0FF"/>
<path d="M207.716 61.2525C207.716 61.7903 207.716 62.2474 207.716 62.7045C207.716 63.1078 207.743 63.4843 208.147 63.6725C208.254 63.7263 208.308 63.8069 208.281 63.9414C208.254 64.1027 208.12 64.1296 207.985 64.1296C207.017 64.1296 206.022 64.1296 205.054 64.1296C204.92 64.1296 204.785 64.1027 204.759 63.9414C204.732 63.78 204.839 63.6994 204.947 63.6456C205.269 63.4843 205.377 63.2154 205.377 62.8927C205.377 62.0054 205.377 61.118 205.377 60.2307C205.377 59.908 205.323 59.5854 204.947 59.5047C204.57 59.424 204.328 59.666 204.167 59.9618C203.979 60.2576 203.925 60.6071 203.925 60.9567C203.925 61.4945 203.925 62.0323 203.925 62.5969C203.925 63.054 203.925 63.4843 204.409 63.6994C204.517 63.7531 204.57 63.8607 204.517 63.9683C204.463 64.0758 204.355 64.1296 204.248 64.1296C203.28 64.1296 202.339 64.1296 201.371 64.1296C201.236 64.1296 201.102 64.1027 201.075 63.9414C201.048 63.8069 201.129 63.7263 201.236 63.6725C201.559 63.5111 201.586 63.2423 201.586 62.9465C201.586 61.8171 201.586 60.6878 201.586 59.5854C201.586 59.2627 201.532 58.9669 201.182 58.8325C201.048 58.7787 200.967 58.6712 201.021 58.5367C201.048 58.3754 201.182 58.3485 201.317 58.3485C201.935 58.2947 202.554 58.2678 203.145 58.214C203.495 58.1872 203.71 58.3216 203.764 58.6711C203.844 59.1014 203.979 59.0207 204.248 58.8056C204.839 58.2678 205.565 58.0527 206.372 58.1334C207.098 58.1872 207.474 58.5367 207.636 59.2627C207.77 59.908 207.689 60.634 207.716 61.2525Z" fill="#00F0FF"/>
<path d="M161.683 61.1988C161.683 61.7366 161.683 62.1668 161.683 62.6239C161.683 63.0541 161.683 63.4844 162.14 63.6995C162.247 63.7532 162.301 63.8608 162.247 63.9684C162.221 64.0759 162.113 64.1297 161.979 64.1297C160.984 64.1297 159.989 64.1297 158.994 64.1297C158.859 64.1297 158.725 64.0759 158.725 63.9415C158.698 63.807 158.779 63.7264 158.886 63.6726C159.29 63.5112 159.343 63.1617 159.343 62.7852C159.343 61.9248 159.343 61.0375 159.317 60.177C159.317 59.9081 159.263 59.6124 158.94 59.5317C158.591 59.4241 158.349 59.6124 158.16 59.8812C157.945 60.2039 157.865 60.5804 157.838 60.9568C157.838 61.4946 157.838 62.0055 157.838 62.5432C157.838 63.0004 157.838 63.4306 158.322 63.7264C158.564 63.8608 158.456 64.1297 158.214 64.1297C157.219 64.1566 156.224 64.1566 155.229 64.1297C154.961 64.1297 154.907 63.8608 155.149 63.7264C155.498 63.5381 155.498 63.2155 155.498 62.8928C155.498 61.8172 155.498 60.7417 155.498 59.693C155.498 59.3435 155.498 58.9939 155.095 58.8326C154.987 58.7788 154.934 58.6712 154.987 58.5637C155.014 58.4292 155.122 58.4024 155.229 58.4024C155.902 58.3486 156.574 58.3217 157.219 58.2679C157.542 58.241 157.649 58.4561 157.676 58.6981C157.73 59.0746 157.865 59.1015 158.133 58.8595C158.725 58.3217 159.451 58.1066 160.258 58.1604C160.984 58.2141 161.387 58.5637 161.548 59.2628C161.763 59.9081 161.656 60.6072 161.683 61.1988Z" fill="#00F0FF"/>
<path d="M176.821 64.2648C176.337 64.2648 175.961 64.2648 175.584 64.1572C174.025 63.7808 173.164 62.759 173.137 61.1994C173.137 59.613 173.944 58.5374 175.53 58.1341C176.498 57.8921 177.466 57.9459 178.407 58.2954C179.564 58.7256 180.263 59.7205 180.29 60.9574C180.317 62.4632 179.752 63.4581 178.515 63.9421C177.95 64.1841 177.359 64.2916 176.821 64.2648ZM177.843 61.3876C177.762 60.7961 177.762 60.1508 177.439 59.5861C177.251 59.2634 177.009 59.0214 176.633 59.0483C176.283 59.0752 176.014 59.2903 175.88 59.613C175.45 60.6885 175.53 61.7641 176.041 62.759C176.391 63.4312 177.224 63.3505 177.547 62.6783C177.762 62.3019 177.816 61.8716 177.843 61.3876Z" fill="#00F0FF"/>
<path d="M253.535 61.2795C253.535 61.6828 253.535 62.0862 253.535 62.4895C253.535 62.9735 253.562 63.4306 254.1 63.6726C254.234 63.7264 254.288 63.8339 254.261 63.9684C254.207 64.1028 254.073 64.1297 253.938 64.1297C253.239 64.1297 252.567 64.1297 251.868 64.1297C251.733 64.1297 251.599 64.0759 251.545 63.9684C251.357 63.5651 251.222 63.6457 250.9 63.8608C250.066 64.4255 249.152 64.4524 248.265 64.0491C247.162 63.5382 247.135 61.9786 248.238 61.1451C248.937 60.6073 249.797 60.3653 250.631 60.1771C250.873 60.1233 251.249 60.1771 251.196 59.7737C251.169 59.3973 250.98 59.1015 250.523 59.0477C249.69 58.9402 249.018 59.2897 248.56 60.0426C248.453 60.2039 248.426 60.5266 248.13 60.4191C247.888 60.3115 248.023 60.0695 248.05 59.8813C248.076 59.4242 248.023 58.9402 248.211 58.5368C248.426 58.0528 249.018 58.4024 249.421 58.268C250.254 57.9991 251.115 57.9453 252.002 58.1066C253.051 58.2948 253.481 58.7519 253.535 59.8006C253.535 60.2846 253.508 60.7686 253.535 61.2795ZM249.744 62.3013C249.744 62.5433 249.824 62.7315 250.066 62.8122C250.308 62.9197 250.523 62.8659 250.712 62.6777C251.169 62.2744 251.115 61.7097 251.169 61.1719C251.196 61.0375 251.088 60.9837 250.954 61.0106C250.416 61.0375 249.744 61.7635 249.744 62.3013Z" fill="#00F0FF"/>
<path d="M117.827 61.1189C117.827 61.576 117.827 62.0331 117.827 62.4902C117.827 62.9742 117.881 63.4044 118.392 63.6464C118.526 63.7002 118.58 63.8077 118.553 63.9422C118.526 64.1035 118.392 64.1304 118.257 64.1304C117.558 64.1304 116.886 64.1304 116.187 64.1304C116.106 64.1304 115.972 64.1035 115.945 64.0229C115.676 63.4044 115.38 63.7809 115.057 63.9691C114.358 64.3455 113.632 64.3724 112.879 64.1842C111.643 63.8615 111.32 62.3557 112.261 61.3877C112.826 60.8231 113.552 60.5542 114.305 60.3391C114.52 60.2853 114.735 60.2315 114.95 60.1777C115.219 60.124 115.488 60.0702 115.461 59.6938C115.434 59.3442 115.246 59.1291 114.896 59.0484C114.116 58.8871 113.337 59.2635 112.879 60.0164C112.772 60.1778 112.745 60.5004 112.449 60.3929C112.207 60.2853 112.315 60.0164 112.342 59.8013C112.395 59.3711 112.369 58.8871 112.53 58.5106C112.745 58.0266 113.31 58.3762 113.686 58.2418C114.654 57.9191 115.676 57.8653 116.671 58.188C117.451 58.43 117.773 58.8333 117.773 59.64C117.854 60.1509 117.827 60.6349 117.827 61.1189ZM115.488 61.6835C115.488 61.092 115.461 61.0382 115.219 61.0651C114.681 61.1189 114.143 61.7104 114.116 62.2482C114.089 62.4902 114.143 62.7322 114.385 62.8397C114.654 62.9473 114.869 62.8935 115.084 62.7053C115.407 62.3826 115.461 61.9793 115.488 61.6835Z" fill="#00F0FF"/>
<path d="M153.966 61.091C153.966 61.5213 153.966 61.9515 153.966 62.4086C153.966 62.9195 153.993 63.4035 154.53 63.6455C154.665 63.6993 154.719 63.8068 154.692 63.9681C154.638 64.1026 154.503 64.1295 154.369 64.1295C153.697 64.1295 153.025 64.1295 152.352 64.1295C152.245 64.1295 152.083 64.0757 152.057 64.0219C151.815 63.4304 151.546 63.753 151.223 63.9413C150.524 64.3446 149.771 64.3715 149.018 64.1833C147.781 63.8606 147.459 62.3548 148.4 61.3868C148.964 60.7953 149.69 60.5533 150.443 60.3382C150.658 60.2844 150.873 60.2306 151.089 60.1768C151.357 60.123 151.653 60.0693 151.599 59.6928C151.573 59.3164 151.357 59.1013 150.981 59.0475C150.174 58.913 149.448 59.2895 148.991 60.0693C148.884 60.2306 148.857 60.4995 148.588 60.4188C148.346 60.3381 148.48 60.0693 148.453 59.881C148.453 59.8542 148.453 59.8004 148.453 59.7735C148.507 59.3433 148.453 58.8593 148.642 58.5097C148.857 58.1064 149.395 58.4022 149.771 58.2677C150.739 57.9719 151.761 57.8913 152.756 58.187C153.562 58.429 153.885 58.8324 153.912 59.6928C153.966 60.1499 153.966 60.6339 153.966 61.091ZM151.626 61.4944C151.573 61.3599 151.761 61.0373 151.357 61.0641C150.847 61.1179 150.282 61.6826 150.255 62.1666C150.228 62.4355 150.228 62.7313 150.551 62.8388C150.847 62.9464 151.115 62.8119 151.304 62.5699C151.546 62.2741 151.599 61.8977 151.626 61.4944Z" fill="#00F0FF"/>
<path d="M165.178 64.2369C164.506 64.3982 163.78 63.9411 163.027 64.1024C162.839 64.1293 162.812 63.9411 162.812 63.8067C162.758 63.2689 162.731 62.7311 162.704 62.1933C162.704 62.032 162.624 61.8438 162.866 61.79C163.081 61.7362 163.135 61.9245 163.215 62.0858C163.565 62.9731 164.237 63.3764 165.178 63.3496C165.286 63.3496 165.393 63.3227 165.501 63.3227C165.85 63.2151 166.2 63.1076 166.2 62.6773C166.2 62.274 165.85 62.1933 165.528 62.0858C165.044 61.9513 164.533 61.8438 164.076 61.6556C163.457 61.4405 162.946 61.064 162.866 60.338C162.785 59.5045 163.081 58.886 163.807 58.4827C164.721 57.9718 165.662 57.9718 166.657 58.16C166.845 58.1869 167.06 58.2676 167.249 58.2138C167.733 58.0525 167.867 58.2407 167.867 58.6709C167.867 58.9398 167.921 59.2087 167.948 59.4776C167.948 59.6389 168.028 59.8809 167.813 59.9616C167.571 60.0691 167.464 59.8271 167.356 59.6658C166.98 59.1818 166.496 58.9129 165.85 58.9398C165.555 58.9667 165.205 59.0205 165.178 59.3431C165.124 59.6927 165.501 59.7465 165.743 59.8271C166.2 59.9885 166.684 60.096 167.141 60.2573C167.867 60.4993 168.432 60.9027 168.512 61.7631C168.593 62.6773 168.243 63.4033 167.437 63.8604C166.711 64.1831 165.985 64.2907 165.178 64.2369Z" fill="#00F0FF"/>
<path d="M130.169 61.1726C130.384 60.5004 130.599 59.8013 130.814 59.1291C130.868 58.9409 130.787 58.7795 130.653 58.6451C130.411 58.3762 130.492 58.2149 130.841 58.188C131.379 58.1611 131.917 58.188 132.481 58.188C132.589 58.188 132.697 58.188 132.75 58.3224C132.804 58.4838 132.723 58.5644 132.589 58.6182C132.159 58.8333 131.971 59.2635 131.809 59.6938C131.137 61.3609 130.465 63.028 129.793 64.6951C129.631 65.1253 129.443 65.5286 129.174 65.9051C128.556 66.7386 127.453 66.9537 126.539 66.3891C126.27 66.2277 126.189 66.0664 126.324 65.7706C126.485 65.4211 126.593 65.0715 126.754 64.722C126.808 64.5875 126.862 64.4262 127.05 64.48C127.211 64.5069 127.292 64.6144 127.292 64.8026C127.292 65.1522 127.319 65.4749 127.776 65.5017C128.206 65.5286 128.421 65.206 128.556 64.8564C128.717 64.4262 128.69 63.996 128.556 63.5926C128.045 62.0869 127.426 60.6349 126.808 59.2098C126.7 58.9946 126.539 58.8064 126.351 58.672C126.243 58.5913 126.163 58.5106 126.216 58.3493C126.27 58.2149 126.378 58.2149 126.485 58.2149C127.399 58.2149 128.314 58.2149 129.201 58.2149C129.524 58.2149 129.604 58.3762 129.389 58.6182C129.255 58.7795 129.228 58.9409 129.255 59.1291C129.416 59.8551 129.766 60.5004 130.008 61.1995C130.061 61.1726 130.115 61.1726 130.169 61.1726Z" fill="#00F0FF"/>
<path d="M169.454 61.3871C169.454 60.9031 169.454 60.4191 169.454 59.9351C169.454 59.5855 169.507 59.2091 168.997 59.1822C168.889 59.1822 168.808 59.0746 168.808 58.9402C168.808 58.7789 168.916 58.6982 169.05 58.6713C169.373 58.5906 169.534 58.4024 169.561 58.0797C169.696 56.3051 171.013 55.8211 172.411 55.848C173.756 55.8749 173.998 56.3051 173.433 57.542C173.379 57.6495 173.326 57.7571 173.164 57.7571C173.003 57.7571 172.976 57.6226 172.949 57.4882C172.949 57.3269 172.922 57.1655 172.815 57.0311C172.573 56.6546 172.089 56.6815 171.901 57.0849C171.739 57.4075 171.739 57.7571 171.82 58.1066C171.874 58.4293 172.196 58.2949 172.411 58.3486C172.573 58.3755 172.922 58.0529 172.895 58.4831C172.869 58.7789 172.922 59.2897 172.438 59.2629C171.793 59.2091 171.766 59.5586 171.793 60.0157C171.82 60.93 171.793 61.8173 171.793 62.7315C171.793 63.108 171.82 63.5113 172.25 63.6995C172.358 63.7533 172.411 63.834 172.411 63.9684C172.385 64.1297 172.277 64.1835 172.143 64.1835C171.175 64.1835 170.233 64.1835 169.265 64.1835C169.158 64.1835 169.05 64.1297 168.997 64.0222C168.97 63.9146 168.997 63.8071 169.104 63.7533C169.507 63.5651 169.481 63.2155 169.481 62.866C169.454 62.3282 169.454 61.8442 169.454 61.3871Z" fill="#00F0FF"/>
<path d="M107.421 61.1986C107.421 60.7146 107.421 60.2574 107.421 59.7734C107.421 59.4777 107.421 59.2626 107.045 59.1819C106.668 59.1012 106.695 58.8323 106.991 58.671C107.529 58.3483 107.69 57.8374 107.636 57.2728C107.609 56.9232 107.717 56.735 108.04 56.6274C108.443 56.5199 108.846 56.3586 109.223 56.2241C109.599 56.0897 109.68 56.2241 109.653 56.5468C109.653 56.9501 109.68 57.3534 109.653 57.7299C109.626 58.1332 109.76 58.3483 110.191 58.2946C110.379 58.2677 110.567 58.2677 110.728 58.2946C110.89 58.3214 111.186 58.0794 111.212 58.4021C111.239 58.671 111.186 59.0206 110.863 59.2088C110.809 59.2357 110.755 59.2357 110.702 59.2357C109.707 59.3432 109.707 59.3432 109.707 60.3381C109.707 61.0372 109.707 61.7094 109.707 62.4085C109.707 62.6774 109.707 62.9732 110.056 63.0808C110.352 63.1883 110.621 63.0539 110.836 62.8388C110.97 62.6774 111.078 62.4892 111.212 62.301C111.293 62.1934 111.374 62.1666 111.508 62.2203C111.643 62.2741 111.67 62.3817 111.616 62.4892C111.32 63.027 111.401 63.8605 110.728 64.0757C109.814 64.3714 108.846 64.5597 107.959 63.9143C107.556 63.6186 107.448 63.1883 107.421 62.7043C107.421 62.2203 107.421 61.7094 107.421 61.1986Z" fill="#00F0FF"/>
<path d="M245.092 64.2647C244.662 64.2378 244.178 64.2916 243.694 64.184C241.892 63.7807 240.736 61.8985 241.22 60.0969C241.569 58.7794 242.887 57.8652 244.285 58.0265C244.85 58.0803 245.415 58.1341 245.952 58.0803C246.221 58.0534 246.356 58.1609 246.409 58.4029C246.517 58.8869 246.651 59.3978 246.759 59.8818C246.786 60.0163 246.84 60.1776 246.651 60.2583C246.436 60.3389 246.383 60.1507 246.302 60.0163C245.845 59.2096 245.361 58.9407 244.769 59.0752C244.043 59.2365 243.64 59.8012 243.586 60.6885C243.559 61.0918 243.559 61.5221 243.694 61.9254C243.909 62.5438 244.312 63.0009 244.984 63.0816C245.683 63.1892 246.275 62.9741 246.678 62.3556C246.786 62.1943 246.867 61.8716 247.162 62.0329C247.404 62.1674 247.189 62.3825 247.162 62.5707C247.135 62.6783 247.082 62.7858 247.055 62.8665C246.598 64.2378 246.598 64.2378 245.092 64.2647Z" fill="#00F0FF"/>
<path d="M125.678 59.532C125.678 60.5538 125.678 61.5487 125.678 62.5705C125.678 63.0007 125.705 63.404 126.162 63.646C126.27 63.6998 126.324 63.8074 126.297 63.9149C126.27 64.0762 126.135 64.1031 126.001 64.1031C125.06 64.1031 124.119 64.1031 123.178 64.1031C123.043 64.1031 122.909 64.0762 122.882 63.9149C122.855 63.7805 122.936 63.6729 123.07 63.6191C123.339 63.4847 123.366 63.2427 123.393 62.9738C123.393 61.0378 123.393 59.1287 123.393 57.2196C123.393 56.9776 123.366 56.7625 123.151 56.6011C122.882 56.386 122.909 56.1709 123.258 56.1171C123.957 55.9827 124.657 55.902 125.356 55.8214C125.759 55.7676 125.732 56.0903 125.732 56.3323C125.678 57.4078 125.678 58.4834 125.678 59.532Z" fill="#00F0FF"/>
<path d="M121.753 59.5325C121.753 60.5811 121.753 61.6298 121.753 62.6785C121.753 63.0549 121.806 63.4314 122.21 63.6465C122.317 63.7003 122.371 63.7809 122.371 63.9154C122.344 64.0767 122.21 64.1036 122.075 64.1036C121.107 64.1036 120.166 64.1036 119.198 64.1036C119.091 64.1036 118.983 64.0498 118.956 63.9423C118.929 63.8347 118.956 63.7271 119.064 63.6734C119.44 63.512 119.413 63.1625 119.44 62.8398C119.44 61.0114 119.44 59.1829 119.44 57.3545C119.44 57.0587 119.44 56.7898 119.144 56.5747C118.902 56.3865 118.983 56.1714 119.279 56.1176C119.978 56.01 120.677 55.9025 121.376 55.8218C121.78 55.768 121.753 56.0638 121.753 56.3327C121.753 57.4083 121.753 58.4569 121.753 59.5325Z" fill="#00F0FF"/>
<path d="M183.651 58.9943C184.162 58.4834 184.673 58.0801 185.399 58.0801C185.802 58.0801 185.936 58.2414 185.829 58.6179C185.775 58.7523 185.748 58.9136 185.721 59.0481C185.533 59.801 185.533 59.801 184.753 59.6396C184.242 59.5321 183.812 59.7472 183.732 60.2581C183.57 61.2261 183.624 62.221 183.678 63.189C183.705 63.431 183.893 63.5654 184.081 63.673C184.189 63.7536 184.269 63.8612 184.216 63.9956C184.162 64.1032 184.054 64.1301 183.947 64.1301C183.006 64.1301 182.064 64.1301 181.123 64.1301C180.989 64.1301 180.854 64.1032 180.828 63.9687C180.801 63.8074 180.881 63.7267 180.989 63.673C181.311 63.5116 181.338 63.2427 181.338 62.9201C181.338 61.8445 181.338 60.769 181.338 59.7203C181.338 59.3439 181.311 58.9943 180.881 58.8061C180.774 58.7523 180.72 58.6716 180.747 58.5372C180.774 58.3759 180.908 58.349 181.043 58.3221C181.715 58.2683 182.387 58.2414 183.059 58.2145C183.543 58.1876 183.436 58.6716 183.651 58.9943Z" fill="#00F0FF"/>
<path d="M233.933 64.1294C233.476 64.1294 233.019 64.1294 232.562 64.1294C232.427 64.1294 232.266 64.1294 232.212 63.9412C232.185 63.7798 232.266 63.6992 232.4 63.6454C232.669 63.5109 232.696 63.2689 232.696 63.0001C232.696 61.8707 232.696 60.7145 232.696 59.5852C232.696 59.2625 232.669 58.9667 232.32 58.8054C232.212 58.7516 232.158 58.671 232.158 58.5365C232.185 58.3752 232.32 58.3483 232.427 58.3214C233.072 58.2676 233.718 58.2407 234.39 58.187C234.632 58.1601 234.793 58.2676 234.82 58.5096C234.928 59.0205 235.116 58.8861 235.412 58.6441C235.815 58.2676 236.272 58.0794 236.837 58.1063C237.16 58.1332 237.321 58.2407 237.186 58.5903C237.133 58.7516 237.106 58.9129 237.079 59.0743C236.891 59.8272 236.891 59.8272 236.111 59.6658C235.627 59.5583 235.25 59.7465 235.143 60.2036C234.874 61.1985 235.008 62.2203 235.062 63.2152C235.062 63.4034 235.224 63.5378 235.385 63.6454C235.519 63.7261 235.654 63.7798 235.627 63.9681C235.573 64.1832 235.385 64.1563 235.224 64.1563C234.793 64.1294 234.363 64.1294 233.933 64.1294Z" fill="#00F0FF"/>
<path d="M240.171 60.7683C240.171 61.4136 240.171 62.0589 240.171 62.7312C240.171 63.1076 240.225 63.4572 240.601 63.6454C240.709 63.726 240.79 63.8067 240.763 63.9412C240.709 64.0756 240.574 64.1294 240.467 64.1294C239.526 64.1294 238.585 64.1294 237.644 64.1294C237.509 64.1294 237.375 64.1025 237.348 63.968C237.294 63.8067 237.402 63.726 237.509 63.6723C237.805 63.5378 237.832 63.2689 237.832 62.9732C237.832 61.8707 237.832 60.7683 237.832 59.6658C237.832 59.3969 237.805 59.1818 237.563 58.9936C237.267 58.7785 237.402 58.5903 237.724 58.5365C238.396 58.4289 239.069 58.3214 239.768 58.2407C240.09 58.1869 240.171 58.4021 240.171 58.6709C240.171 59.3432 240.171 60.0423 240.171 60.7683Z" fill="#00F0FF"/>
<path d="M105.862 60.7684C105.862 61.4407 105.862 62.1129 105.862 62.7851C105.862 63.1347 105.942 63.4842 106.292 63.6724C106.399 63.7262 106.507 63.8069 106.48 63.9682C106.453 64.1296 106.292 64.1564 106.184 64.1564C105.243 64.1564 104.302 64.1564 103.361 64.1564C103.226 64.1564 103.092 64.1295 103.065 63.9951C103.011 63.8607 103.119 63.7531 103.226 63.6993C103.495 63.5649 103.549 63.3229 103.549 63.0809C103.549 61.9516 103.549 60.7953 103.549 59.666C103.549 59.424 103.495 59.2358 103.28 59.0476C102.984 58.8324 103.119 58.6442 103.442 58.5905C104.114 58.4829 104.786 58.3753 105.485 58.2947C105.808 58.2409 105.888 58.456 105.888 58.7249C105.862 59.3433 105.862 60.0424 105.862 60.7684Z" fill="#00F0FF"/>
<path d="M200.053 60.6346C200.053 61.3874 200.026 62.1134 200.053 62.8663C200.053 63.1621 200.134 63.4848 200.456 63.6461C200.591 63.6999 200.644 63.8074 200.618 63.9688C200.564 64.1301 200.429 64.1301 200.295 64.1301C199.354 64.1301 198.413 64.1301 197.472 64.1301C197.364 64.1301 197.256 64.1032 197.203 63.9957C197.149 63.8612 197.23 63.7268 197.337 63.673C197.714 63.4848 197.74 63.1621 197.74 62.8126C197.74 61.8446 197.74 60.8497 197.74 59.8817C197.74 59.559 197.714 59.2363 197.418 59.0212C197.176 58.833 197.23 58.6179 197.552 58.5641C198.251 58.4566 198.95 58.349 199.65 58.2683C199.945 58.2146 199.999 58.4297 199.999 58.6717C199.999 59.3439 199.999 60.0161 199.999 60.6883H200.053V60.6346Z" fill="#00F0FF"/>
<path d="M94.4337 60.6882C94.4337 61.3067 94.4068 61.9251 94.4337 62.5435C94.4337 62.9738 94.4606 63.4309 94.9177 63.6729C95.0253 63.7267 95.0521 63.8342 95.0253 63.9418C94.9984 64.0762 94.8908 64.1031 94.7833 64.1031C93.7884 64.1031 92.8204 64.1031 91.8524 64.1031C91.7448 64.1031 91.6373 64.0493 91.6104 63.9149C91.5835 63.8073 91.6373 63.6998 91.7448 63.646C92.1213 63.4847 92.1481 63.1351 92.1481 62.7855C92.1481 61.7907 92.1481 60.7958 92.1481 59.8009C92.1481 59.4782 92.0944 59.2093 91.8255 58.9673C91.5566 58.7522 91.6373 58.5371 91.9868 58.4833C92.659 58.3758 93.3044 58.2951 93.9766 58.1875C94.2724 58.1338 94.4068 58.2682 94.4068 58.5909C94.4337 59.29 94.4337 59.9891 94.4337 60.6882Z" fill="#00F0FF"/>
<path d="M239.069 58.0267C238.424 58.0267 237.886 57.5427 237.859 56.9243C237.859 56.3058 238.397 55.795 239.069 55.7681C239.768 55.7681 240.279 56.2252 240.279 56.8705C240.279 57.5427 239.741 58.0536 239.069 58.0267Z" fill="#00F0FF"/>
<path d="M104.732 58.0262C104.087 58.0262 103.549 57.5153 103.549 56.9238C103.549 56.3053 104.087 55.7944 104.759 55.7944C105.431 55.7944 105.969 56.2784 105.969 56.9238C105.969 57.5691 105.431 58.0531 104.732 58.0262Z" fill="#00F0FF"/>
<path d="M198.924 58.0262C198.225 58.0262 197.741 57.5153 197.767 56.87C197.794 56.2247 198.278 55.7944 198.951 55.7944C199.623 55.7944 200.161 56.2784 200.161 56.9238C200.134 57.5422 199.596 58.0531 198.924 58.0262Z" fill="#00F0FF"/>
<path d="M92.175 56.8696C92.2019 56.2243 92.7128 55.7672 93.4119 55.7941C94.0573 55.821 94.5682 56.305 94.5682 56.9234C94.5682 57.5419 94.0035 58.0528 93.3313 58.0259C92.659 58.0259 92.175 57.5419 92.175 56.8696Z" fill="#00F0FF"/>
</svg>
