<svg width="140" height="140" viewBox="0 0 140 140" fill="none" xmlns="http://www.w3.org/2000/svg">
<circle cx="69.9766" cy="69.9766" r="69.9766" fill="#4C4AA1"/>
<path d="M63.5448 49.1017C60.0307 49.4802 56.6248 50.3181 53.327 51.5616C48.7858 53.2645 44.7311 55.7244 41.2171 59.0762C40.8386 59.4276 40.7846 59.725 41.0819 60.1575C41.5955 60.9144 42.1632 61.6442 42.7308 62.32C43.0282 62.6714 43.2444 62.6714 43.5688 62.374C45.1096 60.9144 46.7585 59.6709 48.5425 58.5356C50.2995 57.4273 52.1376 56.4542 54.0839 55.6973C54.8408 55.4 55.5976 55.3189 56.3815 55.5892C57.0843 55.8595 57.2465 56.4002 56.76 56.9408C56.3004 57.5625 55.7058 57.968 55.03 58.2653C53.8676 58.7519 52.7323 59.2925 51.6241 59.8872C49.4345 61.0495 47.4072 62.4281 45.5691 64.077C45.2177 64.4014 45.1366 64.5906 45.5691 64.8879C46.4611 65.5097 47.3802 66.0503 48.3263 66.5639C48.7047 66.7531 48.948 66.699 49.2453 66.4287C49.9752 65.7259 50.7861 65.1042 51.6511 64.5365C57.0573 60.9144 63.0582 59.6709 69.4376 60.0494C73.0327 60.2656 76.4116 61.3469 79.6553 62.9147C79.9797 63.0768 80.223 63.2661 80.3582 63.6175C80.9258 64.9961 82.2774 65.78 83.7911 65.6178C84.0885 65.5907 84.3047 65.6448 84.548 65.807C86.251 67.0234 87.8728 68.375 89.2514 69.9698C90.2786 71.1862 91.2787 72.4026 91.7112 73.9974C91.9275 74.8084 91.7923 75.4301 91.3328 75.6734C90.8733 75.9166 90.2516 75.6734 89.738 75.0246C89.0352 74.1056 88.3324 73.1865 87.6836 72.2674C86.278 70.2942 84.6831 68.4831 82.6017 67.1856C75.5466 62.6984 68.0049 61.4009 59.8956 63.6175C58.9495 63.8878 58.0304 64.2122 57.1384 64.7257C57.2465 64.7528 57.3547 64.7798 57.4358 64.7798C59.8415 65.0231 62.1392 65.6178 64.2746 66.7531C64.5179 66.8882 64.7612 66.8612 65.0315 66.8071C67.0588 66.5098 69.0591 66.5909 71.0865 66.9153C75.844 67.6992 79.8446 69.9157 83.1153 73.4298C86.8186 77.3763 88.7919 82.0527 88.927 87.486C88.9541 88.2428 88.927 88.9727 88.9 89.7296C88.9 89.8647 88.8459 89.9999 88.9811 90.081C89.1163 90.1621 89.2244 90.0269 89.3055 89.9458C89.9812 89.4592 90.657 88.9457 91.3598 88.4861C92.7655 87.5941 93.3061 86.3236 93.0628 84.7018C93.0358 84.4855 93.0087 84.2693 92.9817 84.053C92.8465 83.1069 92.8465 82.0797 92.5222 81.2147C92.0626 80.0524 91.9275 78.863 91.7112 77.6737C91.6842 77.4844 91.6842 77.2682 91.7923 77.106C92.6573 75.7274 93.3872 74.2677 94.5765 73.1324C95.7118 72.0512 95.6848 72.0242 94.8469 70.6996C92.7655 67.4018 90.1705 64.5365 87.0619 62.1848C86.8456 62.0226 86.6564 61.8604 86.6024 61.5631C86.1428 59.752 84.521 58.7248 82.7099 59.0762C82.3585 59.1303 82.0882 59.1033 81.7638 58.9411C76.4657 56.3461 70.8432 55.373 64.9774 55.8595C64.1665 55.9136 63.3285 55.8055 62.5176 55.6433C62.031 55.5622 61.7878 55.2648 61.7337 54.8053C61.6796 54.3188 61.8418 53.9403 62.2743 53.7241C62.5717 53.5619 62.9231 53.4538 63.2474 53.3997C63.8962 53.2375 64.5179 53.2645 65.1667 53.2645C65.4099 53.2645 65.6262 53.2645 65.8695 53.2645C68.1941 53.2375 70.4918 53.1564 72.7894 53.5349C77.0333 54.2377 81.0069 55.6433 84.7372 57.7787C88.4945 59.9412 91.7923 62.6444 94.6036 65.9422C95.6308 67.1315 96.5498 68.375 97.4148 69.6995C97.5229 69.8887 97.6581 70.2131 97.9284 69.9157C98.7393 69.1318 99.5773 68.402 100.172 67.4559C100.334 67.2126 100.28 67.0234 100.145 66.8071C98.2798 63.9689 96.1443 61.3469 93.6034 59.0492C93.3601 58.833 93.1439 58.7519 92.8195 58.8059C91.7923 58.9411 90.7922 58.9681 89.765 58.7519C85.8995 57.995 83.2775 55.7514 81.926 52.0481C81.7908 51.6967 81.6016 51.4805 81.2232 51.3453C80.3582 51.075 79.5202 50.7777 78.6552 50.5344C74.9519 49.4532 71.1946 48.8855 67.3832 48.8855C66.1398 48.8855 64.8423 48.9666 63.5448 49.1017Z" fill="#00F0FF"/>
<path d="M65.5724 35.3434C65.3561 35.5326 65.1399 35.6137 64.8696 35.6407C63.7343 35.6948 62.599 35.7489 61.4907 35.857C56.7332 36.2625 52.1649 37.5329 47.6778 39.0737C45.6234 39.7495 43.6772 40.7496 41.785 41.8309C41.4876 42.0201 41.2714 42.2093 41.0822 42.5067C40.1361 43.9663 39.4603 45.5612 39.0278 47.2371C38.8926 47.7777 38.7305 48.3183 38.7305 48.9941C39.3251 48.5346 39.8117 48.1562 40.3253 47.8048C43.4069 45.5612 46.5965 43.5609 50.2728 42.4256C51.7054 41.9931 53.1381 41.5065 54.6518 41.7498C55.0843 41.8579 55.5168 41.9931 55.5979 42.4526C55.706 42.9391 55.2465 43.0743 54.9221 43.2635C54.8951 43.2906 54.8681 43.2906 54.841 43.3176C52.2731 44.561 49.7051 45.8315 47.1371 47.1019C44.434 48.4265 41.7309 49.724 39.0008 51.0215C38.7575 51.1566 38.4872 51.2377 38.4872 51.5891C38.5142 52.7785 38.6223 53.9408 38.9467 55.1032C39.0278 55.4005 39.19 55.6168 39.5955 55.4005C41.839 54.2922 44.1367 53.265 46.3532 52.1027C49.5159 50.4538 52.7326 48.9671 56.1385 47.9399C61.3285 46.3991 66.6266 45.9937 71.9788 46.6154C74.9792 46.9668 77.9527 47.5615 80.818 48.5346C81.1694 48.6427 81.3586 48.6157 81.3856 48.1832C81.4937 47.2101 81.6289 46.2369 82.0073 45.2909C82.2506 44.6691 82.2236 44.6691 81.6019 44.4799C79.088 43.7231 76.547 43.2095 73.952 42.8851C70.7624 42.4796 67.5186 42.3985 64.2749 42.5877C63.3288 42.6418 62.3557 42.7229 61.4096 42.3985C60.6257 42.1282 60.3554 41.7768 60.3824 41.047C60.4365 40.4253 60.7608 40.1279 61.5718 40.0198C62.626 39.8576 63.7072 39.8035 64.7885 39.7495C65.194 39.7224 65.4913 39.8035 65.8157 40.0738C66.8428 40.9929 68.3025 41.1551 69.4919 40.5334C70.6272 39.9387 71.4111 38.6412 71.303 37.4518C71.1678 36.0732 70.5191 35.019 69.1946 34.5054C68.7621 34.3703 68.3296 34.2892 67.9241 34.2892C67.0591 34.2892 66.2752 34.6406 65.5724 35.3434Z" fill="#00F0FF"/>
<path d="M66.4913 68.0237C66.6265 68.1859 66.6535 68.24 66.7076 68.294C68.7349 69.9159 70.3838 71.8622 71.5462 74.2139C71.6273 74.4031 71.7624 74.4842 71.9787 74.4842C72.6004 74.4842 73.0869 74.8086 73.5465 75.16C74.7088 76.079 75.763 77.1332 76.574 78.3767C78.7905 81.8096 79.25 85.5669 78.6013 89.5135C78.0607 92.7302 76.8443 95.7577 75.4657 98.7041C74.5196 100.731 73.4924 102.678 72.4382 104.651C72.2219 105.056 72.303 105.273 72.7085 105.462C73.2762 105.759 73.8438 105.678 74.4115 105.543C74.898 105.408 75.4116 105.246 75.9252 105.273C76.4388 105.3 76.7091 105.083 76.9254 104.624C78.2499 101.84 79.6014 99.0825 80.8719 96.2713C82.6019 92.3788 83.4399 88.3512 82.8992 84.0802C81.9531 76.3223 76.0063 69.8348 68.3565 68.294C67.8429 68.1859 67.3293 68.0508 66.7076 68.0508C66.5995 67.9967 66.5454 67.9967 66.4913 68.0237Z" fill="#00F0FF"/>
<path d="M73.0061 78.4589C73.3304 80.1619 73.3845 81.8919 73.1953 83.6219C73.0331 85.0545 72.5465 86.379 72.2492 87.7576C71.8167 89.839 70.9517 91.7042 70.0867 93.5693C69.9245 93.9478 69.6812 94.164 69.2758 94.2992C67.7079 94.8128 66.8159 96.1373 66.8159 97.7862C66.8159 99.327 67.5728 100.435 68.9514 101.057C70.33 101.679 71.6545 101.489 72.7898 100.516C73.9521 99.5432 74.3576 98.2457 73.9521 96.759C73.844 96.3806 73.871 96.0832 74.0332 95.7318C75.6281 92.3799 76.6012 88.8929 76.2768 85.1086C76.0606 82.7028 75.3578 80.5133 73.871 78.5941C73.6007 78.2427 73.3575 77.8642 72.8709 77.5128C72.925 77.9183 72.952 78.1886 73.0061 78.4589Z" fill="#00F0FF"/>
</svg>
