<svg width="120" height="40" viewBox="0 0 120 40" fill="none" xmlns="http://www.w3.org/2000/svg">
<rect width="120" height="40" rx="4" fill="#EEEEEE"/>
<path d="M60.1345 28.4453C62.3277 28.7478 63.6891 28.3445 64.7227 27.3108C65.3782 26.6554 65.8824 25.8991 66.3109 25.0924C68.0756 21.8403 72.3613 13.9999 72.3613 13.9999H69.2857L66.084 20.4285L65.0756 13.9999H61.7983V14.1512C61.7983 14.1512 62.9076 20.0251 63.4622 23.0503C63.5378 23.5041 63.6387 24.6638 62.8319 25.3949C62.3782 25.8235 61.7227 26.1512 60.5882 25.9747L60.1345 28.4453ZM57.6891 13.9999L54.7143 20.7562L54.6387 20.731L54.2353 14.1764H50.9832L47.8319 20.7562L47.7563 20.7058L47.6303 13.9999H44.5294L45.1345 24.7646H48.4874L51.7395 17.7562H51.8151L52.3193 24.7646H55.6975L60.5882 13.9999H57.6891ZM75.5882 24.7646H72.3361C73.0672 21.1344 73.7479 17.6302 74.479 13.9999H77V15.9915C77.3277 15.1848 77.8067 14.4033 78.5882 14.0756C79.3445 13.7478 80.5294 13.773 81.7395 14.126C81.2605 15.0587 80.9076 15.8655 80.3782 16.8739C79.9244 16.773 79.4958 16.6722 79.0672 16.6218C78.1092 16.5209 77.4286 16.8991 77.1008 17.8066C76.874 18.4369 76.7227 19.1176 76.5966 19.773C76.2437 21.4369 75.9412 23.1008 75.5882 24.7646ZM86 16.5714C86.4538 16.0167 87.3109 15.689 87.916 15.8907C88.6723 16.1176 88.9244 16.9747 88.395 17.5545C88.2185 17.7562 87.9664 17.9075 87.7143 18.0083C86.9328 18.3108 86.1261 18.2856 85.2689 18.1344C85.395 17.5293 85.6219 17.0251 86 16.5714ZM90.1597 22.0924H90.0588C88.8235 22.5714 87.437 22.6974 86.479 22.4201C85.4202 22.1176 84.8151 21.21 85.0168 20.1764C88.1429 20.4285 89.479 19.8487 90.2101 19.4201C92.1513 18.2604 92.6303 15.1596 90.1092 14.252C87.8908 13.4453 84.7899 13.8235 83.3277 15.5882C81.9916 17.2016 81.6134 18.9663 81.8151 20.9579C81.9664 22.4453 82.9748 24.563 86.3025 24.9159C88.3193 25.1176 89.605 24.5882 89.7059 24.5629L90.1597 22.0924Z" fill="#4C4AA1"/>
<path fill-rule="evenodd" clip-rule="evenodd" d="M26.8818 27.1848L24.9159 32H32.3024C33.7646 32 35.0756 31.1176 35.6302 29.7563L39.6134 20H39.6133L35.126 25.6974C34.4453 26.605 33.4117 27.1848 32.2016 27.1848H26.8818Z" fill="#4C4AA1"/>
<path fill-rule="evenodd" clip-rule="evenodd" d="M37.1155 14.0667L32.6806 19.6975C31.9999 20.605 30.9663 21.1849 29.7562 21.1849H24.4111L22.4452 26H29.8317C31.2939 26 32.6049 25.1177 33.1595 23.7563L37.1155 14.0667Z" fill="#4C4AA1"/>
<path d="M27.3109 8H34.6975L30.7143 17.7563C30.1597 19.1176 28.8487 20 27.3866 20H20L23.9832 10.2437C24.5378 8.88235 25.8487 8 27.3109 8Z" fill="#4C4AA1"/>
</svg>
