<svg width="20" height="19" viewBox="0 0 20 19" fill="none" xmlns="http://www.w3.org/2000/svg">
<path d="M8.59772 17.998L0.0438719 0.605923C-0.0951256 0.328416 0.113871 0 0.421865 0H3.38581C3.54481 0 3.69381 0.0898403 3.76381 0.228594L10.0107 12.8462C10.5677 13.9782 12.1787 13.9782 12.7356 12.8462L18.9625 0.238576C19.0325 0.0998226 19.1815 0.00998226 19.3405 0.00998226H19.7085C19.9275 0.00998226 20.0665 0.238576 19.9675 0.427241L11.3237 17.998C10.7667 19.129 9.15471 19.129 8.59772 17.998Z" fill="url(#paint0_linear_214_702)"/>
<path opacity="0.1" d="M8.59742 17.9978L3.76351 0.238359C3.69351 0.0896237 3.53451 0.00976562 3.40551 0.00976562H0.431564C0.10357 0.00976562 -0.0854268 0.337184 0.0435709 0.615689L8.59742 17.9978Z" fill="white"/>
<path opacity="0.1" d="M10.0098 12.8552L0.0430222 0.605923C-0.0759757 0.318434 0.103021 0.0299468 0.381016 0H3.39496C3.56396 0.00998226 3.69296 0.118789 3.75296 0.228594L10.0098 12.8552Z" fill="white"/>
<defs>
<linearGradient id="paint0_linear_214_702" x1="-2.73154e-05" y1="9.42315" x2="20" y2="9.42315" gradientUnits="userSpaceOnUse">
<stop stop-color="#9D4ABE"/>
<stop offset="0.03" stop-color="#9055C4"/>
<stop offset="0.15" stop-color="#6B74D6"/>
<stop offset="0.26" stop-color="#4C8FE5"/>
<stop offset="0.39" stop-color="#34A3F0"/>
<stop offset="0.52" stop-color="#22B2F9"/>
<stop offset="0.66" stop-color="#18BAFD"/>
<stop offset="0.83" stop-color="#15BDFF"/>
<stop offset="1" stop-color="#28BAD5"/>
</linearGradient>
</defs>
</svg>
