<svg width="112" height="112" viewBox="0 0 112 112" fill="none" xmlns="http://www.w3.org/2000/svg">
<g clip-path="url(#clip0_214_10330)">
<path d="M46.3449 7.72412H42.4828V11.5862H46.3449V7.72412Z" fill="#4C4AA1"/>
<path d="M50.2069 7.72412H46.3448V11.5862H50.2069V7.72412Z" fill="#4C4AA1"/>
<path d="M57.931 7.72412H54.069V11.5862H57.931V7.72412Z" fill="#4C4AA1"/>
<path d="M61.7931 7.72412H57.931V11.5862H61.7931V7.72412Z" fill="#4C4AA1"/>
<path d="M65.6552 7.72412H61.7931V11.5862H65.6552V7.72412Z" fill="#4C4AA1"/>
<path d="M69.5172 7.72412H65.6552V11.5862H69.5172V7.72412Z" fill="#4C4AA1"/>
<path d="M42.4828 11.5862H38.6207V15.4483H42.4828V11.5862Z" fill="#4C4AA1"/>
<path d="M46.3449 11.5862H42.4828V15.4483H46.3449V11.5862Z" fill="#4C4AA1"/>
<path d="M61.7931 11.5862H57.931V15.4483H61.7931V11.5862Z" fill="#4C4AA1"/>
<path d="M69.5172 11.5862H65.6552V15.4483H69.5172V11.5862Z" fill="#4C4AA1"/>
<path d="M50.2069 15.4482H46.3448V19.3103H50.2069V15.4482Z" fill="#4C4AA1"/>
<path d="M54.069 15.4482H50.2069V19.3103H54.069V15.4482Z" fill="#4C4AA1"/>
<path d="M57.931 15.4482H54.069V19.3103H57.931V15.4482Z" fill="#4C4AA1"/>
<path d="M69.5172 15.4482H65.6552V19.3103H69.5172V15.4482Z" fill="#4C4AA1"/>
<path d="M50.2069 19.3103H46.3448V23.1724H50.2069V19.3103Z" fill="#4C4AA1"/>
<path d="M57.931 19.3103H54.069V23.1724H57.931V19.3103Z" fill="#4C4AA1"/>
<path d="M65.6552 19.3103H61.7931V23.1724H65.6552V19.3103Z" fill="#4C4AA1"/>
<path d="M42.4828 23.1724H38.6207V27.0344H42.4828V23.1724Z" fill="#4C4AA1"/>
<path d="M46.3449 23.1724H42.4828V27.0344H46.3449V23.1724Z" fill="#4C4AA1"/>
<path d="M50.2069 23.1724H46.3448V27.0344H50.2069V23.1724Z" fill="#4C4AA1"/>
<path d="M54.069 23.1724H50.2069V27.0344H54.069V23.1724Z" fill="#4C4AA1"/>
<path d="M61.7931 23.1724H57.931V27.0344H61.7931V23.1724Z" fill="#4C4AA1"/>
<path d="M65.6552 23.1724H61.7931V27.0344H65.6552V23.1724Z" fill="#4C4AA1"/>
<path d="M69.5172 23.1724H65.6552V27.0344H69.5172V23.1724Z" fill="#4C4AA1"/>
<path d="M73.3793 23.1724H69.5172V27.0344H73.3793V23.1724Z" fill="#4C4AA1"/>
<path d="M46.3449 27.0344H42.4828V30.8965H46.3449V27.0344Z" fill="#4C4AA1"/>
<path d="M50.2069 27.0344H46.3448V30.8965H50.2069V27.0344Z" fill="#4C4AA1"/>
<path d="M54.069 27.0344H50.2069V30.8965H54.069V27.0344Z" fill="#4C4AA1"/>
<path d="M65.6552 27.0344H61.7931V30.8965H65.6552V27.0344Z" fill="#4C4AA1"/>
<path d="M69.5172 27.0344H65.6552V30.8965H69.5172V27.0344Z" fill="#4C4AA1"/>
<path d="M73.3793 27.0344H69.5172V30.8965H73.3793V27.0344Z" fill="#4C4AA1"/>
<path d="M42.4828 30.8965H38.6207V34.7586H42.4828V30.8965Z" fill="#4C4AA1"/>
<path d="M50.2069 30.8965H46.3448V34.7586H50.2069V30.8965Z" fill="#4C4AA1"/>
<path d="M57.931 30.8965H54.069V34.7586H57.931V30.8965Z" fill="#4C4AA1"/>
<path d="M65.6552 30.8965H61.7931V34.7586H65.6552V30.8965Z" fill="#4C4AA1"/>
<path d="M73.3793 30.8965H69.5172V34.7586H73.3793V30.8965Z" fill="#4C4AA1"/>
<path d="M46.3449 34.7585H42.4828V38.6206H46.3449V34.7585Z" fill="#4C4AA1"/>
<path d="M54.069 34.7585H50.2069V38.6206H54.069V34.7585Z" fill="#4C4AA1"/>
<path d="M57.931 34.7585H54.069V38.6206H57.931V34.7585Z" fill="#4C4AA1"/>
<path d="M61.7931 34.7585H57.931V38.6206H61.7931V34.7585Z" fill="#4C4AA1"/>
<path d="M65.6552 34.7585H61.7931V38.6206H65.6552V34.7585Z" fill="#4C4AA1"/>
<path d="M11.5862 38.6206H7.72412V42.4827H11.5862V38.6206Z" fill="#4C4AA1"/>
<path d="M19.3103 38.6206H15.4482V42.4827H19.3103V38.6206Z" fill="#4C4AA1"/>
<path d="M27.0344 38.6206H23.1724V42.4827H27.0344V38.6206Z" fill="#4C4AA1"/>
<path d="M34.7585 38.6206H30.8965V42.4827H34.7585V38.6206Z" fill="#4C4AA1"/>
<path d="M46.3449 38.6206H42.4828V42.4827H46.3449V38.6206Z" fill="#4C4AA1"/>
<path d="M54.069 38.6206H50.2069V42.4827H54.069V38.6206Z" fill="#4C4AA1"/>
<path d="M57.931 38.6206H54.069V42.4827H57.931V38.6206Z" fill="#4C4AA1"/>
<path d="M65.6552 38.6206H61.7931V42.4827H65.6552V38.6206Z" fill="#4C4AA1"/>
<path d="M69.5172 38.6206H65.6552V42.4827H69.5172V38.6206Z" fill="#4C4AA1"/>
<path d="M73.3793 38.6206H69.5172V42.4827H73.3793V38.6206Z" fill="#4C4AA1"/>
<path d="M88.8275 38.6206H84.9655V42.4827H88.8275V38.6206Z" fill="#4C4AA1"/>
<path d="M100.414 38.6206H96.5518V42.4827H100.414V38.6206Z" fill="#4C4AA1"/>
<path d="M11.5862 42.4827H7.72412V46.3447H11.5862V42.4827Z" fill="#4C4AA1"/>
<path d="M15.4483 42.4827H11.5862V46.3447H15.4483V42.4827Z" fill="#4C4AA1"/>
<path d="M19.3103 42.4827H15.4482V46.3447H19.3103V42.4827Z" fill="#4C4AA1"/>
<path d="M42.4828 42.4827H38.6207V46.3447H42.4828V42.4827Z" fill="#4C4AA1"/>
<path d="M46.3449 42.4827H42.4828V46.3447H46.3449V42.4827Z" fill="#4C4AA1"/>
<path d="M57.931 42.4827H54.069V46.3447H57.931V42.4827Z" fill="#4C4AA1"/>
<path d="M73.3793 42.4827H69.5172V46.3447H73.3793V42.4827Z" fill="#4C4AA1"/>
<path d="M77.2413 42.4827H73.3793V46.3447H77.2413V42.4827Z" fill="#4C4AA1"/>
<path d="M81.1034 42.4827H77.2413V46.3447H81.1034V42.4827Z" fill="#4C4AA1"/>
<path d="M104.276 42.4827H100.414V46.3447H104.276V42.4827Z" fill="#4C4AA1"/>
<path d="M11.5862 46.3447H7.72412V50.2068H11.5862V46.3447Z" fill="#4C4AA1"/>
<path d="M15.4483 46.3447H11.5862V50.2068H15.4483V46.3447Z" fill="#4C4AA1"/>
<path d="M34.7585 46.3447H30.8965V50.2068H34.7585V46.3447Z" fill="#4C4AA1"/>
<path d="M38.6207 46.3447H34.7587V50.2068H38.6207V46.3447Z" fill="#4C4AA1"/>
<path d="M54.069 46.3447H50.2069V50.2068H54.069V46.3447Z" fill="#4C4AA1"/>
<path d="M61.7931 46.3447H57.931V50.2068H61.7931V46.3447Z" fill="#4C4AA1"/>
<path d="M77.2413 46.3447H73.3793V50.2068H77.2413V46.3447Z" fill="#4C4AA1"/>
<path d="M81.1034 46.3447H77.2413V50.2068H81.1034V46.3447Z" fill="#4C4AA1"/>
<path d="M84.9655 46.3447H81.1034V50.2068H84.9655V46.3447Z" fill="#4C4AA1"/>
<path d="M88.8275 46.3447H84.9655V50.2068H88.8275V46.3447Z" fill="#4C4AA1"/>
<path d="M96.5518 46.3447H92.6897V50.2068H96.5518V46.3447Z" fill="#4C4AA1"/>
<path d="M100.414 46.3447H96.5518V50.2068H100.414V46.3447Z" fill="#4C4AA1"/>
<path d="M104.276 46.3447H100.414V50.2068H104.276V46.3447Z" fill="#4C4AA1"/>
<path d="M11.5862 50.2068H7.72412V54.0689H11.5862V50.2068Z" fill="#4C4AA1"/>
<path d="M19.3103 50.2068H15.4482V54.0689H19.3103V50.2068Z" fill="#4C4AA1"/>
<path d="M23.1724 50.2068H19.3103V54.0689H23.1724V50.2068Z" fill="#4C4AA1"/>
<path d="M27.0344 50.2068H23.1724V54.0689H27.0344V50.2068Z" fill="#4C4AA1"/>
<path d="M38.6207 50.2068H34.7587V54.0689H38.6207V50.2068Z" fill="#4C4AA1"/>
<path d="M50.2069 50.2068H46.3448V54.0689H50.2069V50.2068Z" fill="#4C4AA1"/>
<path d="M54.069 50.2068H50.2069V54.0689H54.069V50.2068Z" fill="#4C4AA1"/>
<path d="M57.931 50.2068H54.069V54.0689H57.931V50.2068Z" fill="#4C4AA1"/>
<path d="M88.8275 50.2068H84.9655V54.0689H88.8275V50.2068Z" fill="#4C4AA1"/>
<path d="M100.414 50.2068H96.5518V54.0689H100.414V50.2068Z" fill="#4C4AA1"/>
<path d="M11.5862 54.0688H7.72412V57.9309H11.5862V54.0688Z" fill="#4C4AA1"/>
<path d="M19.3103 54.0688H15.4482V57.9309H19.3103V54.0688Z" fill="#4C4AA1"/>
<path d="M27.0344 54.0688H23.1724V57.9309H27.0344V54.0688Z" fill="#4C4AA1"/>
<path d="M34.7585 54.0688H30.8965V57.9309H34.7585V54.0688Z" fill="#4C4AA1"/>
<path d="M38.6207 54.0688H34.7587V57.9309H38.6207V54.0688Z" fill="#4C4AA1"/>
<path d="M42.4828 54.0688H38.6207V57.9309H42.4828V54.0688Z" fill="#4C4AA1"/>
<path d="M46.3449 54.0688H42.4828V57.9309H46.3449V54.0688Z" fill="#4C4AA1"/>
<path d="M50.2069 54.0688H46.3448V57.9309H50.2069V54.0688Z" fill="#4C4AA1"/>
<path d="M57.931 54.0688H54.069V57.9309H57.931V54.0688Z" fill="#4C4AA1"/>
<path d="M77.2413 54.0688H73.3793V57.9309H77.2413V54.0688Z" fill="#4C4AA1"/>
<path d="M81.1034 54.0688H77.2413V57.9309H81.1034V54.0688Z" fill="#4C4AA1"/>
<path d="M92.6896 54.0688H88.8275V57.9309H92.6896V54.0688Z" fill="#4C4AA1"/>
<path d="M100.414 54.0688H96.5518V57.9309H100.414V54.0688Z" fill="#4C4AA1"/>
<path d="M104.276 54.0688H100.414V57.9309H104.276V54.0688Z" fill="#4C4AA1"/>
<path d="M27.0344 57.9309H23.1724V61.793H27.0344V57.9309Z" fill="#4C4AA1"/>
<path d="M30.8965 57.9309H27.0344V61.793H30.8965V57.9309Z" fill="#4C4AA1"/>
<path d="M42.4828 57.9309H38.6207V61.793H42.4828V57.9309Z" fill="#4C4AA1"/>
<path d="M46.3449 57.9309H42.4828V61.793H46.3449V57.9309Z" fill="#4C4AA1"/>
<path d="M50.2069 57.9309H46.3448V61.793H50.2069V57.9309Z" fill="#4C4AA1"/>
<path d="M54.069 57.9309H50.2069V61.793H54.069V57.9309Z" fill="#4C4AA1"/>
<path d="M57.931 57.9309H54.069V61.793H57.931V57.9309Z" fill="#4C4AA1"/>
<path d="M61.7931 57.9309H57.931V61.793H61.7931V57.9309Z" fill="#4C4AA1"/>
<path d="M73.3793 57.9309H69.5172V61.793H73.3793V57.9309Z" fill="#4C4AA1"/>
<path d="M81.1034 57.9309H77.2413V61.793H81.1034V57.9309Z" fill="#4C4AA1"/>
<path d="M92.6896 57.9309H88.8275V61.793H92.6896V57.9309Z" fill="#4C4AA1"/>
<path d="M104.276 57.9309H100.414V61.793H104.276V57.9309Z" fill="#4C4AA1"/>
<path d="M11.5862 61.7932H7.72412V65.6553H11.5862V61.7932Z" fill="#4C4AA1"/>
<path d="M23.1724 61.7932H19.3103V65.6553H23.1724V61.7932Z" fill="#4C4AA1"/>
<path d="M27.0344 61.7932H23.1724V65.6553H27.0344V61.7932Z" fill="#4C4AA1"/>
<path d="M34.7585 61.7932H30.8965V65.6553H34.7585V61.7932Z" fill="#4C4AA1"/>
<path d="M38.6207 61.7932H34.7587V65.6553H38.6207V61.7932Z" fill="#4C4AA1"/>
<path d="M42.4828 61.7932H38.6207V65.6553H42.4828V61.7932Z" fill="#4C4AA1"/>
<path d="M54.069 61.7932H50.2069V65.6553H54.069V61.7932Z" fill="#4C4AA1"/>
<path d="M57.931 61.7932H54.069V65.6553H57.931V61.7932Z" fill="#4C4AA1"/>
<path d="M65.6552 61.7932H61.7931V65.6553H65.6552V61.7932Z" fill="#4C4AA1"/>
<path d="M77.2413 61.7932H73.3793V65.6553H77.2413V61.7932Z" fill="#4C4AA1"/>
<path d="M81.1034 61.7932H77.2413V65.6553H81.1034V61.7932Z" fill="#4C4AA1"/>
<path d="M84.9655 61.7932H81.1034V65.6553H84.9655V61.7932Z" fill="#4C4AA1"/>
<path d="M96.5518 61.7932H92.6897V65.6553H96.5518V61.7932Z" fill="#4C4AA1"/>
<path d="M100.414 61.7932H96.5518V65.6553H100.414V61.7932Z" fill="#4C4AA1"/>
<path d="M104.276 61.7932H100.414V65.6553H104.276V61.7932Z" fill="#4C4AA1"/>
<path d="M15.4483 65.6553H11.5862V69.5173H15.4483V65.6553Z" fill="#4C4AA1"/>
<path d="M23.1724 65.6553H19.3103V69.5173H23.1724V65.6553Z" fill="#4C4AA1"/>
<path d="M27.0344 65.6553H23.1724V69.5173H27.0344V65.6553Z" fill="#4C4AA1"/>
<path d="M46.3449 65.6553H42.4828V69.5173H46.3449V65.6553Z" fill="#4C4AA1"/>
<path d="M50.2069 65.6553H46.3448V69.5173H50.2069V65.6553Z" fill="#4C4AA1"/>
<path d="M57.931 65.6553H54.069V69.5173H57.931V65.6553Z" fill="#4C4AA1"/>
<path d="M61.7931 65.6553H57.931V69.5173H61.7931V65.6553Z" fill="#4C4AA1"/>
<path d="M65.6552 65.6553H61.7931V69.5173H65.6552V65.6553Z" fill="#4C4AA1"/>
<path d="M69.5172 65.6553H65.6552V69.5173H69.5172V65.6553Z" fill="#4C4AA1"/>
<path d="M77.2413 65.6553H73.3793V69.5173H77.2413V65.6553Z" fill="#4C4AA1"/>
<path d="M88.8275 65.6553H84.9655V69.5173H88.8275V65.6553Z" fill="#4C4AA1"/>
<path d="M100.414 65.6553H96.5518V69.5173H100.414V65.6553Z" fill="#4C4AA1"/>
<path d="M11.5862 69.5173H7.72412V73.3794H11.5862V69.5173Z" fill="#4C4AA1"/>
<path d="M30.8965 69.5173H27.0344V73.3794H30.8965V69.5173Z" fill="#4C4AA1"/>
<path d="M34.7585 69.5173H30.8965V73.3794H34.7585V69.5173Z" fill="#4C4AA1"/>
<path d="M42.4828 69.5173H38.6207V73.3794H42.4828V69.5173Z" fill="#4C4AA1"/>
<path d="M50.2069 69.5173H46.3448V73.3794H50.2069V69.5173Z" fill="#4C4AA1"/>
<path d="M54.069 69.5173H50.2069V73.3794H54.069V69.5173Z" fill="#4C4AA1"/>
<path d="M65.6552 69.5173H61.7931V73.3794H65.6552V69.5173Z" fill="#4C4AA1"/>
<path d="M73.3793 69.5173H69.5172V73.3794H73.3793V69.5173Z" fill="#4C4AA1"/>
<path d="M77.2413 69.5173H73.3793V73.3794H77.2413V69.5173Z" fill="#4C4AA1"/>
<path d="M81.1034 69.5173H77.2413V73.3794H81.1034V69.5173Z" fill="#4C4AA1"/>
<path d="M84.9655 69.5173H81.1034V73.3794H84.9655V69.5173Z" fill="#4C4AA1"/>
<path d="M88.8275 69.5173H84.9655V73.3794H88.8275V69.5173Z" fill="#4C4AA1"/>
<path d="M92.6896 69.5173H88.8275V73.3794H92.6896V69.5173Z" fill="#4C4AA1"/>
<path d="M42.4828 73.3794H38.6207V77.2415H42.4828V73.3794Z" fill="#4C4AA1"/>
<path d="M50.2069 73.3794H46.3448V77.2415H50.2069V73.3794Z" fill="#4C4AA1"/>
<path d="M54.069 73.3794H50.2069V77.2415H54.069V73.3794Z" fill="#4C4AA1"/>
<path d="M65.6552 73.3794H61.7931V77.2415H65.6552V73.3794Z" fill="#4C4AA1"/>
<path d="M69.5172 73.3794H65.6552V77.2415H69.5172V73.3794Z" fill="#4C4AA1"/>
<path d="M73.3793 73.3794H69.5172V77.2415H73.3793V73.3794Z" fill="#4C4AA1"/>
<path d="M88.8275 73.3794H84.9655V77.2415H88.8275V73.3794Z" fill="#4C4AA1"/>
<path d="M92.6896 73.3794H88.8275V77.2415H92.6896V73.3794Z" fill="#4C4AA1"/>
<path d="M100.414 73.3794H96.5518V77.2415H100.414V73.3794Z" fill="#4C4AA1"/>
<path d="M104.276 73.3794H100.414V77.2415H104.276V73.3794Z" fill="#4C4AA1"/>
<path d="M46.3449 77.2415H42.4828V81.1035H46.3449V77.2415Z" fill="#4C4AA1"/>
<path d="M50.2069 77.2415H46.3448V81.1035H50.2069V77.2415Z" fill="#4C4AA1"/>
<path d="M61.7931 77.2415H57.931V81.1035H61.7931V77.2415Z" fill="#4C4AA1"/>
<path d="M69.5172 77.2415H65.6552V81.1035H69.5172V77.2415Z" fill="#4C4AA1"/>
<path d="M73.3793 77.2415H69.5172V81.1035H73.3793V77.2415Z" fill="#4C4AA1"/>
<path d="M81.1034 77.2415H77.2413V81.1035H81.1034V77.2415Z" fill="#4C4AA1"/>
<path d="M88.8275 77.2415H84.9655V81.1035H88.8275V77.2415Z" fill="#4C4AA1"/>
<path d="M92.6896 77.2415H88.8275V81.1035H92.6896V77.2415Z" fill="#4C4AA1"/>
<path d="M100.414 77.2415H96.5518V81.1035H100.414V77.2415Z" fill="#4C4AA1"/>
<path d="M104.276 77.2415H100.414V81.1035H104.276V77.2415Z" fill="#4C4AA1"/>
<path d="M46.3449 81.1035H42.4828V84.9656H46.3449V81.1035Z" fill="#4C4AA1"/>
<path d="M50.2069 81.1035H46.3448V84.9656H50.2069V81.1035Z" fill="#4C4AA1"/>
<path d="M54.069 81.1035H50.2069V84.9656H54.069V81.1035Z" fill="#4C4AA1"/>
<path d="M73.3793 81.1035H69.5172V84.9656H73.3793V81.1035Z" fill="#4C4AA1"/>
<path d="M88.8275 81.1035H84.9655V84.9656H88.8275V81.1035Z" fill="#4C4AA1"/>
<path d="M92.6896 81.1035H88.8275V84.9656H92.6896V81.1035Z" fill="#4C4AA1"/>
<path d="M104.276 81.1035H100.414V84.9656H104.276V81.1035Z" fill="#4C4AA1"/>
<path d="M42.4828 84.9656H38.6207V88.8276H42.4828V84.9656Z" fill="#4C4AA1"/>
<path d="M46.3449 84.9656H42.4828V88.8276H46.3449V84.9656Z" fill="#4C4AA1"/>
<path d="M57.931 84.9656H54.069V88.8276H57.931V84.9656Z" fill="#4C4AA1"/>
<path d="M73.3793 84.9656H69.5172V88.8276H73.3793V84.9656Z" fill="#4C4AA1"/>
<path d="M77.2413 84.9656H73.3793V88.8276H77.2413V84.9656Z" fill="#4C4AA1"/>
<path d="M81.1034 84.9656H77.2413V88.8276H81.1034V84.9656Z" fill="#4C4AA1"/>
<path d="M84.9655 84.9656H81.1034V88.8276H84.9655V84.9656Z" fill="#4C4AA1"/>
<path d="M88.8275 84.9656H84.9655V88.8276H88.8275V84.9656Z" fill="#4C4AA1"/>
<path d="M92.6896 84.9656H88.8275V88.8276H92.6896V84.9656Z" fill="#4C4AA1"/>
<path d="M104.276 84.9656H100.414V88.8276H104.276V84.9656Z" fill="#4C4AA1"/>
<path d="M54.069 88.8276H50.2069V92.6897H54.069V88.8276Z" fill="#4C4AA1"/>
<path d="M57.931 88.8276H54.069V92.6897H57.931V88.8276Z" fill="#4C4AA1"/>
<path d="M61.7931 88.8276H57.931V92.6897H61.7931V88.8276Z" fill="#4C4AA1"/>
<path d="M84.9655 88.8276H81.1034V92.6897H84.9655V88.8276Z" fill="#4C4AA1"/>
<path d="M88.8275 88.8276H84.9655V92.6897H88.8275V88.8276Z" fill="#4C4AA1"/>
<path d="M92.6896 88.8276H88.8275V92.6897H92.6896V88.8276Z" fill="#4C4AA1"/>
<path d="M96.5518 88.8276H92.6897V92.6897H96.5518V88.8276Z" fill="#4C4AA1"/>
<path d="M42.4828 92.6897H38.6207V96.5518H42.4828V92.6897Z" fill="#4C4AA1"/>
<path d="M54.069 92.6897H50.2069V96.5518H54.069V92.6897Z" fill="#4C4AA1"/>
<path d="M57.931 92.6897H54.069V96.5518H57.931V92.6897Z" fill="#4C4AA1"/>
<path d="M65.6552 92.6897H61.7931V96.5518H65.6552V92.6897Z" fill="#4C4AA1"/>
<path d="M69.5172 92.6897H65.6552V96.5518H69.5172V92.6897Z" fill="#4C4AA1"/>
<path d="M88.8275 92.6897H84.9655V96.5518H88.8275V92.6897Z" fill="#4C4AA1"/>
<path d="M104.276 92.6897H100.414V96.5518H104.276V92.6897Z" fill="#4C4AA1"/>
<path d="M46.3449 96.5518H42.4828V100.414H46.3449V96.5518Z" fill="#4C4AA1"/>
<path d="M50.2069 96.5518H46.3448V100.414H50.2069V96.5518Z" fill="#4C4AA1"/>
<path d="M57.931 96.5518H54.069V100.414H57.931V96.5518Z" fill="#4C4AA1"/>
<path d="M61.7931 96.5518H57.931V100.414H61.7931V96.5518Z" fill="#4C4AA1"/>
<path d="M65.6552 96.5518H61.7931V100.414H65.6552V96.5518Z" fill="#4C4AA1"/>
<path d="M69.5172 96.5518H65.6552V100.414H69.5172V96.5518Z" fill="#4C4AA1"/>
<path d="M73.3793 96.5518H69.5172V100.414H73.3793V96.5518Z" fill="#4C4AA1"/>
<path d="M77.2413 96.5518H73.3793V100.414H77.2413V96.5518Z" fill="#4C4AA1"/>
<path d="M88.8275 96.5518H84.9655V100.414H88.8275V96.5518Z" fill="#4C4AA1"/>
<path d="M92.6896 96.5518H88.8275V100.414H92.6896V96.5518Z" fill="#4C4AA1"/>
<path d="M100.414 96.5518H96.5518V100.414H100.414V96.5518Z" fill="#4C4AA1"/>
<path d="M42.4828 100.414H38.6207V104.276H42.4828V100.414Z" fill="#4C4AA1"/>
<path d="M46.3449 100.414H42.4828V104.276H46.3449V100.414Z" fill="#4C4AA1"/>
<path d="M54.069 100.414H50.2069V104.276H54.069V100.414Z" fill="#4C4AA1"/>
<path d="M65.6552 100.414H61.7931V104.276H65.6552V100.414Z" fill="#4C4AA1"/>
<path d="M69.5172 100.414H65.6552V104.276H69.5172V100.414Z" fill="#4C4AA1"/>
<path d="M73.3793 100.414H69.5172V104.276H73.3793V100.414Z" fill="#4C4AA1"/>
<path d="M77.2413 100.414H73.3793V104.276H77.2413V100.414Z" fill="#4C4AA1"/>
<path d="M81.1034 100.414H77.2413V104.276H81.1034V100.414Z" fill="#4C4AA1"/>
<path d="M84.9655 100.414H81.1034V104.276H84.9655V100.414Z" fill="#4C4AA1"/>
<path d="M100.414 100.414H96.5518V104.276H100.414V100.414Z" fill="#4C4AA1"/>
<path d="M104.276 100.414H100.414V104.276H104.276V100.414Z" fill="#4C4AA1"/>
<path d="M30.7034 7.72412H11.7793H7.72412V11.7793V30.7034V34.7586H11.7793H30.7034H34.7586V30.7034V11.7793V7.72412H30.7034ZM30.7034 30.7034H11.7793V11.7793H30.7034V30.7034Z" fill="#4C4AA1"/>
<path d="M100.221 7.72412H81.2965H77.2413V11.7793V30.7034V34.7586H81.2965H100.221H104.276V30.7034V11.7793V7.72412H100.221ZM100.221 30.7034H81.2965V11.7793H100.221V30.7034Z" fill="#4C4AA1"/>
<path d="M30.7034 77.2415H11.7793H7.72412V81.2966V100.221V104.276H11.7793H30.7034H34.7586V100.221V81.2966V77.2415H30.7034ZM30.7034 100.221H11.7793V81.2966H30.7034V100.221Z" fill="#4C4AA1"/>
<path d="M27.0345 15.4482H15.4482V27.0345H27.0345V15.4482Z" fill="#4C4AA1"/>
<path d="M96.5517 15.4482H84.9655V27.0345H96.5517V15.4482Z" fill="#4C4AA1"/>
<path d="M27.0345 84.9656H15.4482V96.5518H27.0345V84.9656Z" fill="#4C4AA1"/>
</g>
<defs>
<clipPath id="clip0_214_10330">
<rect width="112" height="112" fill="white"/>
</clipPath>
</defs>
</svg>
