<svg width="32" height="32" viewBox="0 0 32 32" fill="none" xmlns="http://www.w3.org/2000/svg">
<path d="M20 25C22.2091 25 24 23.2091 24 21C24 18.7909 22.2091 17 20 17C17.7909 17 16 18.7909 16 21C16 23.2091 17.7909 25 20 25Z" fill="#6EC67A"/>
<path d="M14.9337 24.7297C13.4557 24.5309 12.0626 23.923 10.9118 22.9745C9.76088 22.026 8.89804 20.7747 8.42059 19.3619C7.94314 17.949 7.8701 16.4308 8.20972 14.9786C8.54933 13.5265 9.28808 12.1981 10.3426 11.1436C11.3971 10.089 12.7254 9.35013 14.1775 9.0104C15.6296 8.67067 17.1478 8.74359 18.5607 9.22092C19.9736 9.69826 21.225 10.561 22.1735 11.7118C23.1221 12.8626 23.7302 14.2556 23.929 15.7336" stroke="white" stroke-width="1.5" stroke-linecap="round" stroke-linejoin="round"/>
<path d="M14.0726 24.5661C12.991 22.9789 12.2671 20.0947 12.2671 16.8002C12.2671 13.5058 12.991 10.6223 14.0726 9.03442" stroke="white" stroke-width="1.5" stroke-linecap="round" stroke-linejoin="round"/>
<path d="M8.01831 16.2669H14.9337" stroke="white" stroke-width="1.5" stroke-linecap="round" stroke-linejoin="round"/>
<path d="M9.59985 12.0004H22.4002" stroke="white" stroke-width="1.5" stroke-linecap="round" stroke-linejoin="round"/>
<path d="M8.92358 20.5335H12.5971" stroke="white" stroke-width="1.5" stroke-linecap="round" stroke-linejoin="round"/>
<path d="M17.9282 9.03442C18.85 10.5913 19.411 12.335 19.5701 14.1372" stroke="white" stroke-width="1.5" stroke-linecap="round" stroke-linejoin="round"/>
</svg>
