<svg width="32" height="32" viewBox="0 0 32 32" fill="none" xmlns="http://www.w3.org/2000/svg">
<g opacity="0.3">
<path d="M20.0001 25C22.2093 25 24.0001 23.2091 24.0001 21C24.0001 18.7909 22.2093 17 20.0001 17C17.791 17 16.0001 18.7909 16.0001 21C16.0001 23.2091 17.791 25 20.0001 25Z" fill="#6EC67A"/>
<path d="M14.9339 24.7297C13.4558 24.5309 12.0627 23.923 10.9119 22.9745C9.76101 22.026 8.89816 20.7747 8.42071 19.3619C7.94326 17.949 7.87023 16.4308 8.20984 14.9786C8.54945 13.5265 9.2882 12.1981 10.3427 11.1436C11.3972 10.089 12.7255 9.35013 14.1776 9.0104C15.6298 8.67067 17.1479 8.74359 18.5608 9.22092C19.9737 9.69826 21.2251 10.561 22.1737 11.7118C23.1222 12.8626 23.7303 14.2556 23.9292 15.7336" stroke="white" stroke-width="1.5" stroke-linecap="round" stroke-linejoin="round"/>
<path d="M14.0727 24.5661C12.9912 22.9789 12.2673 20.0947 12.2673 16.8002C12.2673 13.5058 12.9912 10.6223 14.0727 9.03442" stroke="white" stroke-width="1.5" stroke-linecap="round" stroke-linejoin="round"/>
<path d="M8.01849 16.2669H14.9339" stroke="white" stroke-width="1.5" stroke-linecap="round" stroke-linejoin="round"/>
<path d="M9.59998 12.0004H22.4003" stroke="white" stroke-width="1.5" stroke-linecap="round" stroke-linejoin="round"/>
<path d="M8.92371 20.5335H12.5972" stroke="white" stroke-width="1.5" stroke-linecap="round" stroke-linejoin="round"/>
<path d="M17.9283 9.03442C18.85 10.5913 19.4111 12.335 19.5702 14.1372" stroke="white" stroke-width="1.5" stroke-linecap="round" stroke-linejoin="round"/>
</g>
</svg>
