<svg width="442" height="160" viewBox="0 0 442 160" fill="none" xmlns="http://www.w3.org/2000/svg">
<path d="M441 44.7703H435.595L432.351 60.7838L428.027 85.3378L425.324 53.3108L422.081 60.7838L420.459 39.4324L417.216 53.3108L415.054 9.54054L411.27 18.0811L408.568 1L404.243 39.4324L401 60.7838L398.838 53.3108L393.432 68.2568L390.189 94.9459L388.027 76.7973L380.459 80L377.216 90.6757L374.513 99.2162L370.73 80L366.405 94.9459L363.162 85.3378L361 105.622L358.297 90.6757L353.973 80L352.351 90.6757L348.568 80L344.784 88.5405L342.081 76.7973H339.378L335.595 73.5946L333.432 85.3378L330.189 99.2162L326.946 114.162L323.703 90.6757L321 99.2162L318.838 90.6757L314.513 109.892L311.811 101.351L309.649 114.162L305.324 94.9459L302.081 99.2162L300.459 119.5L296.676 109.892L295.054 94.9459L291.27 109.892L288.027 94.9459L285.324 105.622L282.622 88.5405L280.459 101.351L276.135 60.7838L272.351 88.5405L269.108 85.3378L266.405 120.568L263.162 94.9459L260.459 85.3378L258.838 114.162H256.676L254.514 159L249.649 99.2162L246.946 109.892L244.243 90.6757L242.081 94.9459L238.838 85.3378L235.054 101.351L231.27 94.9459L225.324 101.351L223.703 80L219.919 76.7973L214.514 90.6757L210.73 85.3378L208.027 68.2568H204.243L201.541 80L198.297 76.7973L195.595 66.1216L192.892 53.3108L190.189 90.6757H186.946L184.243 76.7973L181 85.3378L177.757 76.7973L173.432 90.6757V80H170.189L168.568 66.1216H165.324V80L158.838 94.9459L153.973 105.622L151.811 66.1216L149.108 57.5811L145.324 60.7838L142.081 39.4324H138.838V21.2838H134.514L129.649 44.7703L126.946 31.9595L120.459 23.4189L116.676 36.2297L115.054 105.622L111.27 132.311L105.865 109.892V94.9459L102.622 101.351L99.9189 90.6757L95.054 140.851L91.8108 109.892L87.4865 120.568L84.2432 140.851L79.3784 71.4595L77.7568 105.622L71.8108 136.581L68.5676 66.1216L65.8649 80L63.7027 71.4595L61 80L57.7568 66.1216L53.973 90.6757L51.8108 85.3378L45.8649 109.892L42.6216 73.5946L39.3784 76.7973L34.5135 71.4595L33.4324 80L30.1892 84.2703L24.7838 80L21.5405 88.5405V94.9459L15.5946 91.7432L14.5135 113.095L10.1892 104.554L8.02703 116.297H1" stroke="#6EC67A" stroke-width="2" stroke-linecap="round" stroke-linejoin="round"/>
</svg>
